{"glyphs":{"0":{"ha":723,"x_min":54,"x_max":681,"o":"m 358 617 q 353 499 358 576 q 346 384 346 422 q 407 251 346 274 q 435 245 420 245 q 500 285 472 247 q 530 357 517 309 q 557 591 557 461 q 551 732 557 654 q 525 841 541 807 q 439 906 495 898 q 426 907 433 907 q 387 899 407 906 q 288 808 345 880 q 358 617 358 755 m 296 651 q 263 732 296 704 q 231 746 247 745 q 210 731 212 743 l 210 720 q 271 640 220 685 q 282 633 277 636 l 288 633 q 296 643 294 636 l 296 651 m 543 918 q 548 925 548 921 l 548 929 q 524 982 548 966 q 519 985 521 985 q 496 978 502 987 l 496 972 q 499 962 496 966 q 533 922 509 944 q 536 920 534 921 q 538 918 538 918 l 543 918 m 222 831 q 374 1024 278 985 q 439 1036 410 1036 q 628 876 563 1036 q 642 837 636 857 q 681 585 681 716 q 624 277 680 426 q 388 34 543 58 q 350 31 369 31 q 171 110 250 31 q 60 357 80 201 q 56 439 56 399 q 72 629 56 524 q 152 808 96 768 q 209 830 176 826 q 216 831 210 830 q 222 831 221 831 z "},"1":{"ha":410,"x_min":50,"x_max":351,"o":"m 313 168 q 220 50 293 52 q 151 91 182 52 q 115 180 129 121 q 52 670 52 453 q 61 841 52 761 q 140 1016 77 971 q 203 1035 170 1035 q 312 958 270 1034 q 342 818 336 906 q 350 581 350 699 q 313 168 350 354 m 290 886 q 297 891 296 888 q 298 895 297 894 q 244 987 297 968 q 232 987 239 990 q 224 981 227 986 l 224 975 q 245 954 224 970 q 248 949 248 951 q 267 911 262 935 q 281 887 275 890 q 286 886 283 886 l 290 886 z "},"2":{"ha":692,"x_min":35,"x_max":656,"o":"m 384 1076 q 568 975 498 1076 q 620 808 618 901 q 545 587 618 699 q 362 410 469 471 q 345 380 340 397 q 369 357 354 358 q 377 357 372 357 q 384 355 381 355 q 471 382 407 355 q 530 397 507 397 q 640 311 598 396 q 655 237 655 275 q 590 123 654 156 q 547 110 583 121 q 354 83 445 84 q 66 251 68 85 q 113 366 68 308 q 252 495 176 445 q 277 510 260 499 q 374 595 351 556 q 393 669 393 628 q 351 753 393 731 q 323 760 338 760 q 256 726 292 758 q 236 704 250 719 q 153 648 189 654 q 138 647 145 647 q 49 705 79 647 q 37 762 37 732 q 87 884 37 812 q 90 887 88 887 q 384 1076 227 1074 m 530 888 q 537 899 536 891 l 537 906 q 500 979 537 952 q 483 987 491 985 q 464 979 471 991 q 463 975 463 977 l 463 967 q 468 952 464 960 q 491 924 473 944 q 500 913 495 920 q 515 895 510 901 q 525 888 522 890 l 530 888 m 589 254 q 595 264 594 256 l 595 271 q 556 345 595 320 q 541 351 548 349 q 521 340 525 353 l 521 332 q 545 293 521 319 q 551 289 549 290 q 559 278 553 285 q 574 262 568 266 q 583 254 581 256 l 589 254 z "},"3":{"ha":822,"x_min":33,"x_max":792,"o":"m 389 282 q 494 327 457 282 q 511 378 510 350 q 434 460 511 434 q 416 465 426 463 q 296 448 366 454 q 283 446 290 446 q 240 472 247 446 q 239 479 239 476 q 308 541 239 525 q 323 544 316 544 q 431 575 408 559 q 458 629 457 597 q 396 704 458 684 q 355 709 376 709 q 260 697 347 709 q 220 694 236 694 q 168 703 193 694 q 100 770 121 722 q 94 810 94 791 q 175 925 94 887 q 210 937 193 933 q 294 945 244 945 q 532 913 442 945 q 663 802 624 879 q 682 724 682 764 q 582 537 681 616 q 751 422 696 506 q 792 296 791 361 q 678 92 792 174 q 600 50 640 65 q 427 20 521 22 q 269 37 363 22 q 62 130 119 60 q 34 216 34 170 q 103 320 34 292 q 161 331 129 331 q 289 301 199 331 q 389 282 349 282 m 637 734 q 648 743 646 735 l 648 750 q 623 803 648 772 q 578 848 601 826 q 526 878 547 878 q 503 859 505 875 q 538 826 506 845 q 544 822 543 823 q 594 769 574 804 q 631 735 614 739 q 633 734 632 735 q 637 734 636 734 m 728 330 q 739 338 736 331 l 739 345 q 712 397 738 366 q 669 442 690 420 q 617 472 636 472 q 593 453 594 469 q 625 423 597 438 q 635 418 632 420 q 685 363 662 400 q 720 330 705 334 l 728 330 z "},"4":{"ha":754,"x_min":49,"x_max":703,"o":"m 228 380 q 233 351 220 359 q 334 340 269 340 l 400 340 q 454 338 419 340 q 445 505 445 416 q 453 654 445 579 q 574 818 473 817 q 667 755 633 818 q 670 753 669 754 q 694 636 689 712 q 701 448 701 532 q 670 88 701 256 q 593 -12 648 -11 q 500 88 529 -12 q 499 98 499 94 q 484 160 494 118 q 477 194 480 183 q 388 187 429 187 q 256 195 342 187 q 73 270 117 208 q 68 278 71 274 q 50 363 50 308 q 72 513 50 416 q 187 906 129 761 q 305 1070 239 1029 q 345 1088 324 1081 q 387 1095 370 1095 q 498 1025 457 1095 q 502 1020 500 1023 q 519 943 519 985 q 457 768 519 868 q 445 749 453 761 q 437 735 439 739 q 235 395 288 507 q 228 380 231 387 m 423 975 q 403 1025 423 1015 q 395 1028 397 1028 q 381 1017 382 1025 q 381 1002 380 1013 q 401 943 388 958 q 406 940 404 941 l 411 940 q 423 975 423 954 m 650 693 q 655 699 654 694 q 656 701 656 701 q 612 777 655 762 q 600 777 605 780 q 593 772 595 776 l 593 768 q 614 747 594 761 q 629 713 621 741 q 646 693 633 697 l 650 693 z "},"5":{"ha":863,"x_min":54,"x_max":831,"o":"m 705 479 q 715 488 713 481 q 716 494 715 490 q 716 500 716 498 q 658 598 716 548 q 604 629 623 627 q 574 606 575 628 q 579 590 575 597 q 623 551 586 581 q 635 540 629 545 q 656 515 643 533 q 685 486 674 495 q 697 479 694 480 l 705 479 m 600 819 q 416 836 571 819 q 330 841 366 840 l 250 834 q 214 780 214 833 q 227 690 214 769 q 457 745 366 745 q 555 732 505 745 q 770 582 690 699 q 817 486 802 536 q 830 392 830 438 q 682 118 830 221 q 605 76 646 94 q 377 33 505 33 q 90 130 157 33 q 62 214 62 171 q 94 297 64 262 q 251 350 140 350 q 298 349 266 350 q 349 346 332 346 q 524 420 483 347 q 536 471 536 446 q 479 572 536 536 q 414 590 448 590 q 281 532 362 590 q 262 518 267 522 q 155 475 198 476 q 69 519 96 475 q 60 557 60 538 q 66 589 61 575 q 56 689 56 625 q 64 811 56 732 q 98 948 75 913 q 113 966 106 958 q 227 1016 149 1001 q 490 1048 374 1048 q 736 977 688 1047 q 753 925 753 951 q 693 840 753 871 q 681 833 686 836 q 600 819 647 819 m 671 890 q 681 899 678 892 q 681 902 681 901 q 682 906 682 905 q 635 968 681 939 q 605 979 620 977 q 576 958 578 978 q 613 916 578 933 q 632 905 618 913 q 663 890 652 892 l 671 890 z "},"6":{"ha":808,"x_min":50,"x_max":774,"o":"m 453 1054 q 665 972 579 1054 q 707 918 690 947 q 734 818 732 871 q 677 688 732 738 q 545 629 642 658 q 453 597 483 612 q 359 510 395 567 q 349 490 350 492 q 416 491 372 491 q 747 338 665 491 q 751 331 750 334 q 773 232 773 285 q 685 41 773 122 q 661 20 673 30 q 468 -41 579 -39 q 384 -31 422 -39 q 149 133 241 7 q 52 464 52 270 q 84 696 52 578 q 311 1019 153 937 q 335 1031 323 1025 q 453 1054 389 1054 m 655 772 q 663 785 662 773 q 665 789 663 787 q 665 793 665 792 q 643 864 665 821 q 583 952 610 925 q 555 962 568 968 q 548 958 551 959 q 545 947 547 951 q 545 942 545 945 q 544 937 544 939 q 578 890 551 917 q 620 819 602 865 q 640 777 636 781 q 648 772 646 774 l 655 772 m 633 372 q 614 357 614 369 q 624 342 614 350 q 648 317 639 336 q 656 304 654 309 q 686 300 675 278 q 688 312 688 305 q 684 324 686 315 q 643 369 670 355 q 633 372 637 372 m 511 156 q 572 187 553 156 q 579 212 579 199 q 526 266 578 251 q 387 282 495 274 q 346 286 363 283 q 353 275 349 282 q 358 264 357 267 q 450 175 393 208 q 511 156 490 156 z "},"7":{"ha":666,"x_min":-15,"x_max":632,"o":"m 212 -95 q 75 12 114 -95 q 58 113 58 58 q 123 339 58 206 q 138 370 126 345 q 400 823 282 662 q 406 834 403 827 l 406 841 q 397 849 404 846 l 392 849 q 328 831 372 844 q 179 803 231 803 q 126 808 149 803 q 4 898 42 826 q -14 974 -14 933 q 60 1092 -14 1057 q 134 1108 95 1108 l 221 1099 q 556 959 463 1055 q 632 755 632 879 q 620 640 632 707 q 457 170 585 460 q 449 152 453 160 q 336 -37 387 15 q 212 -95 277 -94 m 537 888 q 518 867 521 888 q 519 856 518 860 q 537 793 524 826 q 552 777 545 779 q 572 814 571 780 q 563 867 572 844 q 537 888 549 887 z "},"8":{"ha":792,"x_min":42,"x_max":758,"o":"m 557 966 q 538 954 541 964 l 538 948 q 543 937 540 944 q 589 891 563 906 l 593 891 q 598 899 598 894 q 600 903 600 901 q 576 956 600 936 q 557 966 567 964 m 671 285 q 680 294 678 288 l 680 302 q 642 384 677 357 q 631 391 636 388 q 593 387 608 399 q 591 384 593 385 q 589 380 589 380 l 589 369 q 595 354 590 365 q 652 292 616 320 q 663 285 663 285 l 671 285 m 281 301 q 330 202 281 227 q 362 194 345 195 q 439 250 418 194 q 448 290 448 270 q 382 427 446 357 q 336 476 351 461 q 315 425 330 458 q 281 301 281 350 m 43 282 q 245 571 46 450 q 240 578 244 574 q 233 586 235 585 q 149 800 149 693 q 248 1008 149 924 q 353 1062 297 1047 q 437 1076 396 1076 q 637 986 556 1076 q 675 933 661 960 q 705 810 705 872 q 601 567 705 681 q 562 529 581 545 q 597 500 572 519 q 722 376 690 426 q 749 317 739 347 q 757 259 757 289 q 674 84 757 159 q 665 76 669 80 q 412 -5 567 -5 q 163 65 262 -4 q 50 225 75 125 q 43 282 43 254 m 568 722 q 526 791 568 773 q 499 796 513 796 q 444 742 453 796 q 442 722 442 732 q 484 606 442 663 q 548 661 536 644 q 568 722 567 688 z "},"9":{"ha":815,"x_min":26,"x_max":779,"o":"m 347 -56 q 212 -3 264 -56 q 175 80 175 34 q 189 130 176 107 q 336 220 224 186 q 343 222 340 221 q 456 267 423 245 q 534 365 511 304 q 536 369 536 366 q 537 372 537 372 q 420 358 465 358 q 129 477 245 358 q 88 526 106 500 q 26 722 27 617 q 125 962 26 867 q 161 991 142 979 q 357 1051 244 1051 q 442 1042 403 1051 q 678 879 587 1004 q 777 548 777 741 q 739 316 777 437 q 488 -16 658 73 q 347 -56 418 -56 m 578 880 q 555 886 567 886 q 526 859 528 883 q 549 829 526 838 q 564 822 560 825 q 597 773 574 817 q 637 736 617 738 q 661 768 659 738 l 661 774 q 591 873 651 836 q 578 880 583 878 m 328 697 q 263 661 275 697 q 262 644 262 652 q 334 590 263 591 q 441 618 372 590 q 468 629 457 625 q 388 682 431 663 q 328 697 347 697 z "}," ":{"ha":457,"x_min":0,"x_max":0,"o":""},"!":{"ha":495,"x_min":61,"x_max":437,"o":"m 403 77 q 334 -60 403 -8 q 243 -91 292 -90 q 115 -23 164 -91 q 98 9 104 -7 q 81 79 83 45 q 155 217 81 168 q 244 243 197 243 q 377 170 332 243 q 403 77 403 127 m 343 52 q 350 60 347 53 l 350 65 q 327 152 349 121 q 292 176 305 175 q 285 175 286 176 q 278 167 282 174 l 278 160 q 296 136 278 149 q 301 130 300 133 q 317 83 307 125 q 338 52 326 58 l 343 52 m 342 439 q 263 323 319 334 q 247 321 256 321 q 178 361 209 321 q 142 452 160 387 q 71 765 83 682 q 62 834 65 802 q 61 880 61 852 q 91 1032 61 970 q 195 1133 123 1105 q 251 1143 222 1143 q 392 1059 336 1143 q 414 1020 406 1039 q 437 894 435 962 q 427 800 435 863 q 359 507 416 726 q 342 439 349 468 m 361 907 q 369 917 368 909 l 369 944 q 327 1054 369 1019 q 300 1067 313 1065 q 274 1057 279 1069 l 274 1048 q 302 1013 277 1036 q 305 1009 304 1010 q 330 945 324 990 q 331 939 330 944 q 334 929 332 932 q 354 907 339 913 l 361 907 z "},"\"":{"ha":541,"x_min":62,"x_max":479,"o":"m 395 1044 q 458 1005 433 1043 q 477 920 477 972 q 446 738 477 868 q 433 681 438 704 q 392 621 420 623 q 346 670 359 621 q 343 680 345 674 q 331 720 339 693 q 298 886 298 829 q 312 971 298 932 q 395 1044 342 1043 m 384 978 q 359 968 362 977 q 358 964 359 966 q 374 952 359 955 l 385 952 q 404 945 389 952 q 410 944 406 945 q 420 960 423 944 q 414 968 418 966 q 411 971 412 968 q 407 974 407 972 q 384 978 396 978 m 159 1044 q 222 1005 197 1043 q 241 920 241 972 q 210 738 241 868 q 197 681 202 704 q 156 621 184 623 q 110 670 123 621 q 107 680 109 674 q 95 720 103 693 q 62 886 62 829 q 76 971 62 932 q 159 1044 106 1043 m 148 978 q 123 968 126 977 q 122 964 123 966 q 138 952 123 955 l 149 952 q 168 945 153 952 q 174 944 170 945 q 184 960 187 944 q 178 968 182 966 q 175 971 176 968 q 171 974 171 972 q 148 978 160 978 z "},"#":{"ha":1149,"x_min":83,"x_max":1046,"o":"m 936 901 q 926 867 936 895 q 924 852 924 859 q 935 838 925 841 q 968 892 964 846 q 956 944 968 926 q 935 952 944 954 q 926 945 928 951 q 925 941 926 944 q 925 937 925 939 q 929 925 925 935 q 936 901 936 913 m 941 728 q 1044 659 1035 703 q 1046 646 1046 652 q 846 545 1044 564 q 817 486 836 525 q 785 425 795 445 q 887 392 852 412 q 924 336 922 370 q 806 248 924 271 q 802 248 803 248 q 684 232 758 240 q 612 106 667 202 q 552 33 579 47 q 517 24 534 24 q 453 80 464 24 q 450 104 450 92 q 483 220 450 138 q 486 227 484 224 q 355 231 481 227 q 285 106 323 170 q 225 33 252 47 q 190 24 208 24 q 126 80 137 24 q 123 104 123 92 q 157 220 123 140 q 165 239 163 231 l 159 239 q 85 266 99 239 q 83 277 83 271 q 144 328 83 309 q 146 330 145 330 l 212 350 q 298 548 233 403 l 281 548 q 208 576 220 548 q 206 586 206 582 q 269 639 208 620 q 311 651 282 643 q 353 665 339 661 q 407 784 372 704 q 445 867 433 840 q 566 1006 496 986 q 571 1008 568 1008 q 595 1010 581 1010 q 678 952 655 1010 q 688 905 688 929 q 642 773 688 854 q 618 732 625 746 q 713 743 655 738 q 736 792 722 760 q 770 867 760 842 q 898 1008 825 989 q 922 1010 907 1010 q 1005 952 982 1010 q 1015 905 1015 929 q 963 766 1015 853 q 941 728 947 739 m 610 901 q 600 867 610 895 q 597 852 597 859 q 609 838 598 841 q 642 892 640 842 q 629 944 642 926 q 609 952 617 954 q 600 945 601 951 q 600 941 600 944 q 598 937 598 939 q 602 925 598 935 q 610 901 610 911 m 916 677 q 909 665 914 673 q 902 651 903 655 q 924 646 916 648 q 935 642 933 642 l 943 642 q 952 650 948 643 l 952 655 q 916 677 943 671 m 517 538 q 486 476 507 518 q 453 414 463 434 q 574 431 525 426 q 597 483 581 449 q 620 534 613 517 q 517 538 618 534 m 745 347 q 749 347 746 347 q 751 346 750 346 q 802 336 789 340 q 812 332 811 332 l 821 332 q 830 340 826 334 l 830 346 q 770 369 823 362 q 762 370 765 370 l 757 370 q 751 358 754 366 q 745 347 746 351 z "},"$":{"ha":834,"x_min":46,"x_max":781,"o":"m 499 719 q 471 690 476 719 q 469 681 469 685 q 476 646 469 671 q 597 488 503 568 q 701 396 685 414 q 718 377 711 385 q 780 212 780 301 q 764 126 780 170 q 612 -26 723 22 q 534 -47 574 -41 q 494 -186 534 -144 q 442 -210 469 -209 q 359 -111 372 -210 q 358 -80 358 -95 q 361 -38 358 -64 q 98 152 183 9 q 47 312 47 233 q 109 460 47 408 q 132 475 121 469 q 179 487 157 487 q 281 418 240 486 q 296 388 286 408 q 359 304 330 319 q 365 301 363 302 q 384 298 372 298 q 423 328 415 298 q 425 340 425 335 q 416 372 425 354 q 326 477 395 418 q 273 526 288 510 q 189 730 190 616 q 283 936 189 852 q 340 974 311 959 q 382 1109 342 1067 q 435 1134 407 1133 q 515 1047 499 1134 q 518 1020 517 1032 l 518 994 q 563 981 537 990 q 715 849 658 943 q 758 707 758 780 q 696 574 758 616 q 667 559 682 563 q 637 555 651 555 q 548 614 579 555 q 537 644 541 629 q 524 704 528 697 q 499 719 513 719 m 646 798 q 606 879 642 856 q 582 886 595 886 q 557 871 559 884 l 557 863 q 564 848 559 857 q 620 787 582 817 q 631 780 624 783 l 632 780 q 636 779 635 780 q 646 789 642 780 l 646 798 m 699 232 q 707 243 705 233 q 708 247 707 244 q 708 250 708 250 q 673 328 707 300 q 659 336 666 334 q 624 332 639 345 q 621 330 623 331 q 620 326 620 326 l 620 315 q 627 300 621 311 q 682 240 643 271 q 693 233 688 236 l 694 233 q 699 232 697 232 m 247 345 q 208 426 243 403 q 183 433 195 433 q 159 418 160 431 l 159 410 q 165 395 160 404 q 221 334 183 363 q 232 328 224 331 l 233 327 q 237 327 236 327 q 245 336 244 328 q 247 340 245 338 q 247 345 247 343 m 425 1066 q 400 1057 401 1065 l 400 1053 q 415 1043 401 1044 q 420 1042 416 1043 q 425 1042 423 1042 q 445 1035 430 1042 q 450 1034 446 1035 q 463 1048 463 1034 q 456 1058 460 1055 q 425 1066 438 1066 z "},"%":{"ha":949,"x_min":43,"x_max":895,"o":"m 784 1051 q 872 991 846 1051 q 883 940 883 967 q 878 901 883 918 q 802 772 864 848 q 236 75 426 305 q 151 5 190 16 q 126 3 138 3 q 60 57 73 3 q 57 83 57 71 q 94 184 58 125 q 403 631 183 338 q 609 916 541 817 q 703 1024 659 991 q 784 1051 743 1051 m 831 932 q 808 983 831 977 q 802 985 804 985 q 789 971 791 982 q 792 951 789 964 q 796 932 796 937 q 780 895 796 921 q 773 875 774 884 q 793 860 776 860 q 831 932 826 882 m 210 730 q 243 674 210 685 q 256 673 251 673 q 305 728 289 674 q 320 842 319 783 q 278 997 320 975 q 254 1002 266 1002 q 203 979 227 1002 q 254 878 254 947 q 247 833 254 859 q 232 800 244 823 q 210 730 210 754 m 161 935 q 142 924 145 933 l 142 917 q 148 906 144 914 q 186 863 157 888 q 190 860 187 861 q 193 859 193 859 l 197 859 q 203 865 202 861 q 205 871 203 867 q 180 928 205 907 q 161 935 171 935 m 296 1043 q 288 1038 289 1042 l 288 1035 q 290 1031 288 1034 q 307 1010 297 1020 q 309 1008 309 1008 l 312 1008 l 313 1009 l 313 1010 q 315 1015 315 1013 q 301 1042 315 1035 q 296 1043 297 1043 m 696 168 q 728 114 696 125 q 743 111 736 111 q 792 167 774 113 q 806 281 806 221 q 764 435 806 414 q 741 442 753 441 q 689 418 712 441 q 741 316 739 385 q 734 273 741 297 q 719 239 730 262 q 696 168 696 193 m 647 373 q 629 362 632 372 l 629 355 q 633 345 629 353 q 673 301 643 327 q 675 300 674 301 q 680 297 678 297 l 684 297 q 689 304 688 300 q 690 309 689 305 q 666 366 690 347 q 647 373 656 373 m 783 481 q 773 476 776 480 l 773 473 q 776 469 774 471 q 793 450 783 458 q 796 448 796 448 l 799 448 l 800 449 l 800 450 q 802 453 800 452 q 783 481 796 476 m 45 807 q 130 989 45 960 q 141 991 137 990 l 153 991 q 231 1063 179 1048 q 258 1067 245 1067 q 351 1017 312 1067 q 408 852 408 947 q 369 688 408 766 q 224 566 308 570 q 175 575 198 566 q 52 738 76 613 q 45 807 45 772 m 530 245 q 617 427 530 400 q 628 430 623 430 l 639 430 q 718 503 665 487 q 745 507 731 507 q 837 456 798 506 q 894 290 894 385 q 856 126 894 206 q 709 4 793 8 q 661 14 684 4 q 537 178 562 52 q 530 245 530 210 z "},"&":{"ha":878,"x_min":49,"x_max":845,"o":"m 400 804 q 345 766 358 804 q 340 746 340 755 q 380 663 340 712 q 445 583 401 635 q 486 692 486 639 q 442 791 486 760 q 400 804 422 804 m 765 420 q 747 448 764 446 q 728 426 730 445 q 747 401 730 403 l 753 401 q 765 420 764 403 m 567 898 q 547 937 566 918 q 486 972 521 966 l 479 972 q 467 960 468 970 q 471 947 468 952 q 522 880 499 899 q 545 871 533 872 q 567 898 564 875 m 811 407 q 749 243 811 339 l 750 241 l 751 240 l 753 239 l 753 237 l 754 236 l 755 235 l 757 233 l 758 232 l 760 231 l 761 228 l 762 227 l 764 225 l 765 224 l 766 222 l 766 221 l 768 220 l 769 218 l 770 217 l 772 216 l 773 214 q 833 126 822 152 q 845 69 844 98 q 799 -19 845 7 q 760 -30 781 -30 q 699 -11 731 -28 q 590 73 646 16 q 406 -5 503 14 q 332 -12 363 -12 q 133 57 212 -12 q 50 216 58 125 q 50 232 50 225 q 71 317 50 279 q 231 452 109 393 q 269 469 247 460 q 197 544 220 518 q 84 795 85 675 q 190 1013 84 930 q 374 1077 270 1076 q 591 986 503 1077 q 670 800 669 906 q 515 502 669 665 q 578 433 536 479 q 640 365 620 388 q 671 426 661 407 q 727 483 701 473 q 750 487 738 487 q 810 430 799 487 q 811 407 811 418 m 416 126 q 517 164 469 127 q 481 216 505 180 q 391 342 423 302 q 380 355 387 346 q 368 368 372 365 q 301 236 302 300 q 362 138 301 168 q 416 126 388 126 z "},"'":{"ha":305,"x_min":62,"x_max":243,"o":"m 159 1044 q 222 1005 197 1043 q 241 920 241 972 q 210 738 241 868 q 197 681 202 704 q 156 621 184 623 q 110 670 123 621 q 107 680 109 674 q 95 720 103 693 q 62 886 62 829 q 76 971 62 932 q 159 1044 106 1043 m 148 978 q 123 968 126 977 q 122 964 123 966 q 138 952 123 955 l 149 952 q 168 945 153 952 q 174 944 170 945 q 184 960 187 944 q 178 968 182 966 q 175 971 176 968 q 171 974 171 972 q 148 978 160 978 z "},"(":{"ha":618,"x_min":8,"x_max":623,"o":"m 467 1067 q 581 1015 544 1067 q 597 960 597 990 q 579 905 597 928 q 473 830 555 871 q 444 814 453 819 q 252 574 305 736 q 237 518 243 545 q 227 404 227 467 q 274 153 227 282 q 458 -53 338 -28 q 471 -56 465 -54 q 513 -60 486 -57 q 595 -80 574 -62 q 623 -140 621 -104 q 606 -194 621 -168 q 431 -270 560 -269 q 273 -233 342 -269 q 100 -72 165 -178 q 8 294 8 75 q 12 389 8 343 q 250 958 43 765 q 315 1010 281 987 q 467 1067 399 1067 m 514 925 q 526 933 525 926 l 526 941 q 496 996 521 977 q 465 1012 475 1012 q 452 997 453 1010 q 469 975 452 990 q 486 954 476 968 q 507 928 499 935 q 514 925 513 925 m 519 -205 q 543 -165 537 -197 q 506 -111 543 -129 q 480 -106 492 -106 q 450 -123 452 -107 q 471 -146 450 -137 q 480 -153 477 -151 q 498 -176 492 -163 q 499 -184 498 -179 q 502 -193 500 -191 q 513 -205 507 -201 l 519 -205 z "},")":{"ha":617,"x_min":-5,"x_max":612,"o":"m 155 -271 q 39 -217 75 -271 q 22 -163 23 -193 q 41 -107 23 -130 q 140 -37 64 -73 q 176 -16 164 -23 q 368 224 313 61 q 382 279 376 251 q 393 393 393 330 q 346 644 392 514 q 160 850 282 826 q 149 853 155 852 q 106 856 134 854 q 23 878 46 860 q -4 937 -4 902 q 12 991 -3 967 q 187 1066 60 1066 q 347 1031 278 1066 q 519 869 454 975 q 612 503 610 723 q 606 408 610 453 q 354 -175 575 18 q 304 -214 330 -197 q 155 -271 218 -270 m 399 886 q 376 872 380 886 q 374 868 376 869 q 397 844 374 854 q 406 838 403 841 q 427 800 415 833 q 430 792 429 795 q 445 788 435 788 q 463 817 461 789 q 441 861 461 833 q 399 886 418 884 z "},"*":{"ha":305,"x_min":-186,"x_max":488,"o":"m 159 1044 q 237 970 217 1044 q 243 922 243 947 q 225 803 243 883 q 236 811 228 806 q 244 817 241 815 q 400 882 330 882 q 486 830 473 882 q 487 814 487 822 q 418 715 486 754 q 248 658 372 688 q 231 652 237 655 q 349 502 321 562 q 365 449 361 475 q 368 422 368 431 q 327 342 368 362 q 301 336 315 336 q 201 404 243 338 q 140 566 170 457 q -4 382 73 427 q -9 380 -7 381 q -71 361 -39 361 q -134 401 -117 361 q -140 427 -140 415 q -103 519 -140 473 q 52 642 -61 567 q 61 648 57 646 q -113 718 -65 684 q -152 754 -134 735 q -184 829 -184 798 q -136 892 -184 878 q -109 898 -122 897 q -35 876 -73 897 q 76 791 15 849 q 65 886 65 838 q 106 1021 66 981 q 159 1044 130 1044 m 148 978 q 123 968 126 977 q 122 964 123 966 q 138 952 123 955 l 149 952 q 168 945 153 952 q 174 944 170 945 q 184 960 187 944 q 178 968 182 966 q 175 971 176 968 q 171 974 171 972 q 148 978 160 978 m 396 838 q 370 829 373 838 l 370 825 q 387 815 373 817 q 391 814 388 815 q 396 814 395 814 q 415 807 400 814 q 420 806 416 807 q 433 821 434 806 q 426 830 431 827 q 396 838 408 838 m -96 837 q -121 827 -119 837 l -121 823 q -106 814 -119 815 q -100 813 -104 814 q -96 812 -96 812 q -76 806 -91 812 q -71 804 -75 806 q -58 819 -58 804 q -65 829 -61 826 q -96 837 -83 837 z "},"+":{"ha":804,"x_min":47,"x_max":755,"o":"m 524 655 q 724 613 665 655 q 754 556 753 591 q 651 468 753 491 q 483 446 571 450 q 473 346 480 412 q 465 256 468 286 q 426 193 457 195 q 374 250 392 195 q 340 448 349 343 q 224 453 301 449 q 113 458 149 457 q 50 487 58 458 q 49 496 49 492 q 102 548 50 529 q 336 629 260 609 q 338 712 336 656 q 340 793 339 766 q 408 905 349 902 q 486 795 473 902 q 495 655 494 726 l 524 655 m 620 591 q 594 578 595 590 q 610 567 597 568 q 651 556 635 563 q 661 552 661 552 l 669 552 q 677 560 673 553 l 677 567 q 625 590 670 583 q 620 591 621 591 m 410 822 q 385 811 387 821 l 385 807 q 400 796 387 798 q 410 795 403 795 q 419 793 416 793 q 423 793 420 793 q 427 792 426 792 q 442 806 441 795 q 410 822 438 821 z "},",":{"ha":515,"x_min":132,"x_max":476,"o":"m 132 83 q 205 197 132 160 q 281 216 239 216 q 336 208 308 214 q 456 99 418 179 q 475 12 475 57 q 472 -23 475 -12 q 267 -244 446 -165 q 255 -250 260 -248 q 203 -264 222 -264 q 153 -221 159 -255 q 195 -156 153 -187 q 206 -149 203 -149 q 259 -79 259 -109 q 213 -26 259 -46 q 205 -23 210 -24 q 189 -15 194 -18 q 132 83 134 19 m 415 22 q 422 30 420 24 l 422 35 q 376 136 422 118 q 373 136 374 136 q 362 136 368 137 q 355 127 358 134 l 355 122 q 377 95 357 114 q 395 50 389 80 q 407 23 395 30 q 411 22 410 23 l 415 22 z "},"-":{"ha":818,"x_min":54,"x_max":762,"o":"m 530 435 q 731 391 671 434 q 761 334 760 369 q 658 245 760 270 q 427 222 559 222 q 151 235 400 222 q 119 236 133 236 q 57 266 66 236 q 56 274 56 270 q 109 327 57 307 q 388 418 301 399 q 530 435 469 434 m 627 369 q 601 355 602 368 q 617 345 604 346 q 658 334 642 340 q 669 330 669 330 l 675 330 q 684 338 681 331 l 684 345 q 633 369 677 361 q 627 369 628 369 z "},".":{"ha":469,"x_min":127,"x_max":426,"o":"m 277 231 q 401 160 358 231 q 425 77 425 122 q 359 -50 425 -3 q 277 -77 320 -77 q 155 -9 201 -77 q 141 14 146 3 q 127 79 127 47 q 197 209 127 165 q 277 231 233 231 m 369 53 q 374 60 373 54 l 374 65 q 354 144 374 117 q 323 168 334 167 q 315 167 317 167 q 308 159 312 165 l 308 153 q 331 125 311 142 q 347 80 343 111 q 359 54 347 61 q 363 53 362 53 l 369 53 z "},"/":{"ha":570,"x_min":-28,"x_max":598,"o":"m 152 92 q 81 11 115 26 q 46 3 64 3 q -24 60 -9 3 q -27 91 -27 75 q -5 179 -27 122 q 297 867 71 372 q 328 936 313 906 q 442 1084 380 1054 q 468 1093 456 1090 q 496 1096 479 1096 q 587 1032 560 1096 q 597 978 597 1006 q 552 842 597 925 q 540 822 544 827 q 312 385 502 754 q 152 92 220 208 m 511 974 q 500 939 511 967 q 498 920 498 928 q 510 906 499 909 q 547 966 544 911 q 532 1023 547 1001 q 510 1032 519 1035 q 500 1024 502 1031 q 499 1020 500 1023 q 499 1016 499 1016 q 505 1001 499 1013 q 511 974 511 987 z "},":":{"ha":552,"x_min":127,"x_max":426,"o":"m 277 684 q 401 613 358 684 q 425 530 425 575 q 359 403 425 450 q 277 376 320 376 q 155 444 201 376 q 141 467 146 456 q 127 532 127 500 q 197 662 127 618 q 277 684 233 684 m 369 506 q 374 513 373 507 l 374 518 q 354 597 374 570 q 323 621 334 620 q 315 620 317 620 q 308 612 312 618 l 308 606 q 331 578 311 595 q 347 533 343 564 q 359 507 347 514 q 363 506 362 506 l 369 506 m 277 231 q 401 160 358 231 q 425 77 425 122 q 359 -50 425 -3 q 277 -77 320 -77 q 155 -9 201 -77 q 141 14 146 3 q 127 79 127 47 q 197 209 127 165 q 277 231 233 231 m 369 53 q 374 60 373 54 l 374 65 q 354 144 374 117 q 323 168 334 167 q 315 167 317 167 q 308 159 312 165 l 308 153 q 331 125 311 142 q 347 80 343 111 q 359 54 347 61 q 363 53 362 53 l 369 53 z "},";":{"ha":608,"x_min":127,"x_max":476,"o":"m 277 686 q 401 616 358 686 q 425 533 425 578 q 359 406 425 453 q 277 378 320 378 q 155 446 201 378 q 141 469 146 458 q 127 534 127 503 q 197 665 127 621 q 277 686 233 686 m 369 509 q 374 515 373 510 l 374 521 q 354 600 374 572 q 323 624 334 623 q 315 623 317 623 q 308 614 312 621 l 308 609 q 331 581 311 598 q 347 536 343 567 q 359 510 347 517 q 363 509 362 509 l 369 509 m 132 83 q 205 197 132 160 q 281 216 239 216 q 336 208 308 214 q 456 99 418 179 q 475 12 475 57 q 472 -23 475 -12 q 267 -244 446 -165 q 255 -250 260 -248 q 203 -264 222 -264 q 153 -221 159 -255 q 195 -156 153 -187 q 206 -149 203 -149 q 259 -79 259 -109 q 213 -26 259 -46 q 205 -23 210 -24 q 189 -15 194 -18 q 132 83 134 19 m 415 22 q 422 30 420 24 l 422 35 q 376 136 422 118 q 373 136 374 136 q 362 136 368 137 q 355 127 358 134 l 355 122 q 377 95 357 114 q 395 50 389 80 q 407 23 395 30 q 411 22 410 23 l 415 22 z "},"<":{"ha":614,"x_min":19,"x_max":614,"o":"m 571 777 q 530 731 570 753 q 439 686 500 715 q 387 661 403 670 q 209 566 326 632 q 193 556 197 559 l 193 555 l 191 553 l 191 552 l 190 551 l 190 549 l 189 547 q 210 524 183 533 q 282 507 233 517 q 381 483 349 494 q 552 389 480 449 q 614 277 613 331 q 549 189 614 208 q 513 183 532 183 l 506 183 q 357 237 446 183 q 330 254 336 250 q 251 297 304 269 q 92 393 140 355 q 19 507 20 450 q 122 640 20 578 q 359 768 241 716 q 517 812 460 812 l 522 812 q 570 785 563 812 q 571 777 571 781 m 427 372 q 458 336 427 358 q 467 331 464 332 q 498 307 487 313 q 513 301 506 302 q 529 313 528 304 q 519 343 530 326 q 448 384 494 382 l 442 384 q 427 372 429 381 m 522 766 q 499 783 519 781 q 483 770 486 780 q 505 750 487 754 q 522 766 521 751 z "},"=":{"ha":818,"x_min":88,"x_max":795,"o":"m 564 749 q 765 704 705 747 q 795 647 793 682 q 692 559 793 583 q 461 536 593 536 q 184 548 434 536 q 153 549 167 549 q 91 579 100 549 q 90 587 90 583 q 142 640 91 620 q 422 731 335 712 q 564 749 503 747 m 661 682 q 635 669 636 681 q 651 658 637 659 q 692 647 675 654 q 703 643 703 643 l 709 643 q 718 651 715 644 l 718 658 q 667 682 711 674 q 661 682 662 682 m 564 435 q 765 391 705 434 q 795 334 793 369 q 692 245 793 270 q 461 222 593 222 q 184 235 434 222 q 153 236 167 236 q 91 266 100 236 q 90 274 90 270 q 142 327 91 307 q 422 418 335 399 q 564 435 503 434 m 661 369 q 635 355 636 368 q 651 345 637 346 q 692 334 675 340 q 703 330 703 330 l 709 330 q 718 338 715 331 l 718 345 q 667 369 711 361 q 661 369 662 369 z "},">":{"ha":608,"x_min":-4,"x_max":593,"o":"m 41 217 q 81 264 42 241 q 174 308 111 279 q 227 334 209 326 q 404 429 288 362 q 418 441 411 433 q 422 449 420 445 q 401 471 427 463 q 331 487 378 477 q 232 513 264 502 q 60 606 130 547 q -3 718 -1 665 q 54 804 -3 780 q 99 812 76 812 l 106 812 q 254 757 163 812 q 282 741 274 745 q 362 697 308 726 q 519 602 472 640 q 591 487 590 545 q 490 354 590 416 q 252 227 372 279 q 96 183 156 183 l 91 183 q 41 217 47 190 m 423 555 q 433 536 425 545 q 463 511 437 533 q 494 487 483 494 q 509 481 502 483 q 525 495 524 484 q 517 525 528 507 q 445 566 488 564 l 439 566 q 423 555 426 563 z "},"?":{"ha":704,"x_min":58,"x_max":646,"o":"m 164 652 q 72 712 102 652 q 58 768 58 739 q 110 887 60 821 q 388 1035 231 1034 q 590 947 513 1035 q 640 848 628 902 q 644 803 644 823 q 568 587 643 704 q 450 439 517 510 q 400 368 410 392 q 346 283 373 300 q 312 274 331 274 q 235 324 258 274 q 227 363 227 343 q 282 468 228 419 q 332 519 301 486 q 407 625 393 586 q 415 669 415 648 q 376 750 415 726 q 345 760 361 760 q 278 724 308 758 q 224 670 237 680 q 164 652 197 654 m 552 888 q 559 899 557 891 q 559 902 559 901 q 560 906 560 905 q 517 981 559 952 q 491 986 502 989 q 483 975 484 977 l 483 967 q 489 953 483 962 q 513 924 495 944 q 521 913 515 920 q 536 895 532 901 q 545 888 543 890 l 552 888 m 297 231 q 423 160 380 231 q 446 77 445 122 q 381 -50 446 -3 q 297 -77 342 -77 q 176 -9 221 -77 q 163 14 168 3 q 149 79 149 47 q 217 209 149 165 q 297 231 254 231 m 391 53 q 396 60 395 54 l 396 65 q 374 144 395 117 q 343 168 355 167 q 336 167 338 167 q 330 159 334 165 l 330 153 q 351 125 331 142 q 368 80 363 111 q 381 54 368 61 q 385 53 384 53 l 391 53 z "},"@":{"ha":844,"x_min":-217,"x_max":914,"o":"m 103 502 q 179 665 103 602 q 296 707 232 707 q 532 572 419 705 q 536 568 533 571 q 538 564 538 564 q 589 621 541 620 q 647 564 636 616 q 648 541 648 552 q 644 509 648 525 q 609 419 642 495 q 594 377 600 395 q 591 362 591 368 q 623 335 594 336 q 678 377 654 335 q 682 385 678 378 q 724 548 723 463 q 614 815 724 696 q 582 848 598 833 q 336 944 465 944 q 227 925 278 944 q 41 758 106 882 q -3 576 -3 674 q 9 475 -3 526 q 294 107 61 256 q 354 72 324 88 q 471 0 445 24 q 505 -42 492 -20 q 518 -96 518 -68 q 441 -205 518 -171 q 368 -220 406 -220 q 164 -133 269 -220 q 134 -109 152 -123 q -206 431 -149 141 q -217 556 -217 490 q -77 932 -217 780 q 9 1006 -37 975 q 301 1089 133 1089 q 385 1084 349 1089 q 745 914 595 1058 q 913 564 898 768 q 914 532 914 552 q 830 259 914 376 q 715 161 780 189 q 647 148 682 148 q 518 224 559 148 q 503 267 507 244 q 500 279 500 275 q 373 252 437 254 q 165 343 247 252 q 114 433 129 384 q 103 502 103 472 m 735 788 q 746 799 743 789 l 746 807 q 692 890 742 863 q 670 899 681 895 q 659 901 665 901 q 639 876 640 898 q 673 834 643 861 q 681 827 678 830 q 689 818 684 825 q 728 789 712 793 q 732 789 730 789 q 735 788 734 788 m 575 567 q 606 540 585 541 q 629 560 628 540 q 629 570 629 566 q 598 590 623 589 q 575 567 576 587 m 438 -106 q 449 -95 445 -104 l 449 -85 q 395 -3 445 -30 q 372 5 382 3 q 362 7 368 7 q 342 -16 343 4 q 376 -58 346 -33 q 384 -65 381 -62 q 392 -75 387 -68 q 430 -104 415 -99 q 434 -104 431 -104 q 438 -106 437 -106 m 279 472 q 362 374 279 400 q 425 365 392 365 q 503 372 442 365 q 528 486 505 380 q 496 507 515 487 q 380 562 441 560 q 293 517 324 562 q 279 472 279 495 z "},"A":{"ha":955,"x_min":-24,"x_max":989,"o":"m 66 206 q -15 252 9 206 q -24 293 -24 273 q -24 298 -24 294 q -23 307 -23 304 q 75 385 -11 368 q 148 395 91 388 q 187 568 163 452 q 245 811 222 731 q 378 1009 290 963 q 442 1025 410 1025 q 586 945 514 1025 q 591 939 589 941 q 755 598 686 826 q 776 529 764 571 q 793 465 781 507 q 818 377 811 407 q 986 282 970 361 q 989 258 989 270 q 936 178 989 197 q 902 172 921 172 q 860 176 880 172 q 869 73 869 100 q 814 -53 869 -18 q 762 -68 791 -68 q 609 56 667 -66 q 530 250 562 146 q 377 263 446 263 q 213 244 294 263 l 180 102 q 117 19 163 20 q 73 58 83 19 q 72 76 72 68 q 79 119 72 87 q 90 165 81 136 q 102 210 99 195 q 66 206 83 206 m 438 799 q 411 826 431 825 q 373 791 388 825 q 262 441 331 693 q 252 404 256 419 q 393 408 323 408 q 494 407 460 408 q 491 414 494 410 q 490 420 490 419 q 469 623 484 449 q 438 799 460 732 m 939 254 q 949 264 947 255 l 949 273 q 886 338 940 320 q 863 327 865 343 q 864 319 863 323 q 869 313 865 316 q 874 308 872 309 q 882 304 876 307 l 887 301 q 918 266 901 290 q 939 254 929 255 m 559 842 q 570 853 567 844 l 570 861 q 514 944 566 918 q 494 952 503 949 q 483 954 488 954 q 463 930 464 951 q 498 888 467 916 q 505 882 502 884 q 540 849 534 852 q 552 844 547 845 q 556 844 553 844 q 559 842 557 842 z "},"B":{"ha":792,"x_min":18,"x_max":789,"o":"m 315 19 q 151 79 206 19 q 119 156 119 113 q 146 222 121 191 l 146 293 q 140 441 145 345 l 134 441 q 72 473 76 444 q 126 526 72 506 q 132 528 130 526 q 110 704 117 654 q 104 705 107 705 q 99 707 100 707 q 24 777 42 728 q 18 808 18 793 q 34 860 19 836 q 267 949 88 949 q 529 901 407 949 q 661 795 623 860 q 684 715 684 753 q 586 547 684 625 q 583 544 585 545 q 765 416 712 513 q 789 331 788 373 q 688 160 788 237 q 519 71 633 119 q 315 19 391 20 m 632 734 q 643 743 640 735 l 643 750 q 617 803 642 772 q 572 848 595 826 q 521 878 541 878 q 498 859 499 876 q 532 826 500 844 q 537 822 536 823 q 589 769 571 800 q 625 735 609 739 q 628 734 627 735 q 632 734 631 734 m 743 358 q 754 366 751 359 l 754 373 q 728 426 753 395 q 655 494 684 476 q 628 500 639 500 q 609 481 610 498 q 640 452 612 468 q 648 448 646 449 q 680 423 671 433 q 697 399 686 415 q 722 365 712 374 q 736 358 731 359 l 743 358 m 342 453 q 338 368 340 425 q 334 283 335 312 q 479 334 435 293 q 503 387 502 358 q 441 454 503 431 q 419 461 433 457 q 407 465 411 464 q 343 453 397 463 l 342 453 m 336 697 q 345 541 345 620 q 452 620 449 560 q 406 678 452 654 q 401 681 403 680 q 336 697 377 692 z "},"C":{"ha":848,"x_min":11,"x_max":834,"o":"m 533 544 q 317 397 319 541 q 330 343 317 374 q 549 212 376 222 q 582 210 566 210 l 689 217 q 727 220 713 220 q 834 137 831 216 q 722 11 833 57 q 521 -30 625 -30 q 155 123 302 -30 q 16 400 42 241 q 11 476 11 435 q 151 818 11 674 q 326 933 228 897 q 480 962 407 962 q 722 878 621 962 q 764 833 746 856 q 811 699 811 765 q 785 613 810 647 q 593 544 734 544 l 533 544 m 735 700 q 746 711 743 701 l 746 719 q 719 784 745 745 q 675 838 704 804 q 621 875 644 873 q 600 852 601 872 q 636 811 604 834 q 640 808 639 810 q 692 743 673 783 q 728 700 711 705 l 735 700 m 736 114 q 731 91 736 106 l 731 81 q 742 75 732 75 q 764 119 761 79 q 705 174 762 161 q 674 167 681 180 q 673 163 673 164 l 673 157 q 696 144 675 146 q 736 114 732 140 z "},"D":{"ha":907,"x_min":20,"x_max":887,"o":"m 149 -53 q 72 9 73 -50 q 118 83 73 45 q 212 141 159 118 l 212 167 q 186 621 212 317 q 37 747 77 647 q 31 762 33 755 q 20 826 20 795 q 125 1015 20 947 q 170 1039 146 1029 q 225 1099 186 1086 q 243 1101 235 1101 q 307 1065 282 1100 q 426 1053 369 1065 q 781 860 655 1009 q 886 563 886 734 q 766 218 886 374 q 735 179 751 197 q 465 1 625 61 q 399 -20 420 -15 q 397 -24 397 -22 q 396 -30 396 -28 q 330 -92 376 -80 q 311 -95 320 -95 q 236 -49 266 -94 q 149 -53 193 -53 m 766 703 q 777 713 774 704 l 777 722 q 777 730 777 726 q 777 737 777 734 q 774 745 776 741 q 772 751 773 749 q 768 758 770 754 q 766 764 766 762 q 762 770 765 765 q 759 775 760 774 q 755 781 758 776 q 751 787 751 787 q 707 842 736 807 q 663 876 682 871 q 637 872 642 879 q 633 854 633 867 q 666 817 637 836 q 674 811 671 812 q 724 746 707 785 q 760 703 742 708 l 766 703 m 389 600 q 412 220 408 401 q 416 222 414 221 q 572 408 555 293 q 574 430 574 418 q 499 562 574 511 q 472 576 486 571 q 389 600 435 593 z "},"E":{"ha":781,"x_min":33,"x_max":761,"o":"m 122 844 q 33 892 34 845 q 103 956 33 935 q 107 958 106 958 q 109 958 109 958 l 111 959 l 111 974 q 176 1096 111 1078 q 199 1099 187 1099 q 293 1012 262 1097 q 515 1044 414 1044 q 718 981 669 1043 q 734 935 734 960 q 586 822 732 840 q 511 819 560 819 q 326 831 437 819 q 332 705 330 788 q 429 722 382 722 q 556 673 522 722 q 568 633 568 655 q 330 524 567 524 q 326 426 328 491 q 320 328 321 361 q 536 370 434 370 q 758 233 736 370 q 761 201 761 217 q 716 84 760 132 q 562 34 669 37 q 538 34 551 34 q 307 58 483 34 q 157 72 216 72 l 117 72 q 80 77 92 72 q 42 146 43 99 q 104 235 42 205 q 132 247 114 239 q 159 259 151 255 q 155 313 155 278 l 155 388 q 151 530 155 458 q 113 560 118 530 q 111 568 111 564 q 144 616 113 600 q 122 844 130 768 m 536 996 q 509 979 511 994 q 557 956 513 956 l 559 956 q 620 937 586 956 q 650 925 639 926 q 670 936 669 926 q 620 977 669 960 q 536 996 559 996 m 684 208 q 699 224 697 210 q 648 283 697 259 q 595 305 620 297 q 567 312 571 312 q 540 293 545 312 q 538 286 538 289 q 570 254 538 256 q 587 252 576 252 q 648 225 617 251 q 684 208 670 209 m 473 669 q 456 654 457 666 q 457 650 456 652 q 467 643 458 644 q 473 643 469 643 q 480 642 479 642 q 490 636 483 642 q 503 629 499 629 l 507 629 q 514 637 513 631 l 514 644 q 476 669 509 661 l 473 669 z "},"F":{"ha":860,"x_min":8,"x_max":873,"o":"m 136 572 q 125 671 125 656 q 199 785 125 770 q 225 788 213 788 q 351 666 323 788 q 357 640 355 652 q 502 655 431 655 q 643 636 579 655 q 728 559 727 609 q 633 471 728 495 q 623 468 627 469 q 407 446 529 446 l 380 446 l 380 411 q 365 137 380 374 q 365 126 365 130 q 270 1 357 3 q 179 71 199 1 q 172 115 172 92 q 174 146 172 125 q 174 178 174 168 q 153 456 174 302 q 119 457 142 456 q 84 458 95 458 q 22 487 30 458 q 20 495 20 492 q 69 547 20 528 q 73 548 72 548 q 104 560 84 552 q 136 572 126 568 m 604 1077 q 854 1000 800 1076 q 873 937 873 971 q 861 887 872 906 q 616 796 810 799 q 598 796 606 796 q 315 817 537 796 q 149 826 216 826 l 96 826 l 58 830 q 11 871 22 838 q 8 887 8 879 q 14 911 8 901 q 102 967 30 947 q 104 968 103 968 q 408 1054 328 1038 q 604 1077 517 1077 m 617 991 q 674 964 618 964 l 682 964 q 761 940 719 964 q 800 925 785 926 q 825 939 823 926 q 792 977 823 958 q 692 1008 765 990 q 654 1015 661 1015 q 621 1000 632 1013 l 617 991 m 591 591 q 567 578 568 589 q 581 567 568 568 q 591 566 583 567 q 601 564 598 564 q 614 559 605 564 q 633 552 628 552 l 639 552 q 648 560 646 553 l 648 567 q 598 590 643 583 q 591 591 594 591 z "},"G":{"ha":982,"x_min":20,"x_max":948,"o":"m 548 374 q 624 506 548 461 q 716 532 666 532 q 769 525 747 532 q 918 392 869 498 q 947 262 947 330 q 818 -9 947 103 q 548 -106 707 -104 q 293 -33 411 -104 q 56 283 122 76 q 20 507 22 391 q 167 920 20 751 q 370 1061 254 1019 q 530 1088 445 1088 q 814 1008 694 1088 q 878 949 853 981 q 920 837 918 894 q 838 697 918 754 q 643 628 779 654 q 494 590 537 606 q 391 529 430 566 q 317 359 319 460 q 354 235 319 293 q 499 126 403 153 q 567 117 533 117 q 697 165 670 117 q 704 193 704 179 q 662 241 704 227 q 647 245 656 243 q 633 250 637 248 q 553 339 571 274 q 548 374 549 357 m 810 788 q 822 800 821 789 l 822 810 q 793 884 822 848 q 743 947 776 909 q 693 987 713 978 q 682 990 684 990 q 659 967 662 990 q 658 963 658 964 q 699 917 663 941 q 704 913 703 914 q 738 879 723 898 q 758 841 746 868 q 787 796 774 808 q 802 788 793 789 l 810 788 m 795 408 q 783 411 785 411 q 755 396 757 410 q 773 378 755 384 q 784 373 780 376 q 810 343 791 370 q 836 326 823 326 q 856 345 854 327 q 852 359 854 353 q 795 408 831 392 z "},"H":{"ha":1036,"x_min":19,"x_max":983,"o":"m 19 438 q 64 498 19 479 q 84 505 75 503 q 45 736 54 648 q 39 819 39 792 q 66 964 39 903 q 176 1078 99 1043 q 255 1096 216 1096 q 423 1004 358 1096 q 453 945 442 975 q 473 818 473 888 q 464 696 473 788 q 442 495 449 553 q 533 484 472 491 q 625 475 595 477 q 647 780 632 640 q 696 966 662 905 q 807 1051 738 1036 q 833 1054 819 1054 q 967 955 928 1054 q 983 860 983 911 q 959 696 983 803 q 916 448 940 613 q 921 445 917 446 q 974 385 963 426 q 977 368 977 376 q 921 297 977 323 q 890 289 905 292 q 844 71 871 172 q 773 -49 817 -22 q 730 -62 750 -62 q 637 4 669 -61 q 620 122 620 45 l 620 176 q 621 305 620 263 q 423 340 548 316 q 396 134 415 270 q 290 -4 370 -1 q 205 45 241 -3 q 167 148 183 75 q 114 377 149 225 q 28 411 54 377 q 19 438 20 425 m 380 842 q 391 853 387 844 l 391 861 q 336 998 389 928 q 282 1035 307 1035 q 262 1010 262 1032 q 298 968 266 994 q 302 966 301 966 q 340 888 331 940 q 372 842 351 848 l 380 842 m 913 811 q 922 822 921 814 q 922 826 922 823 q 924 830 924 830 l 924 845 q 865 987 924 941 q 861 990 863 989 q 833 1000 848 1000 q 812 977 814 997 q 842 937 817 964 q 849 930 846 933 q 869 895 864 913 q 876 867 872 887 q 906 811 886 817 l 913 811 z "},"I":{"ha":460,"x_min":34,"x_max":411,"o":"m 365 373 q 330 157 347 220 q 252 95 308 96 q 151 197 179 95 q 144 225 148 209 q 104 393 132 282 q 65 562 77 506 q 34 800 34 711 q 149 1023 35 967 q 222 1039 184 1039 q 357 972 301 1038 q 411 810 411 910 q 403 696 411 768 q 365 373 389 586 m 345 812 l 345 830 q 312 939 343 891 q 270 964 290 963 q 248 952 250 963 l 248 945 q 273 913 250 933 q 281 906 278 909 q 305 838 293 892 q 308 825 307 830 q 330 803 313 811 l 336 803 q 345 812 343 804 z "},"J":{"ha":734,"x_min":-23,"x_max":678,"o":"m 351 412 q 331 681 351 471 q 321 842 321 777 q 347 990 321 930 q 449 1090 384 1066 q 491 1097 471 1097 q 636 994 585 1097 q 647 971 643 982 q 670 777 669 913 q 671 765 671 770 q 674 663 671 731 q 678 526 678 571 q 613 197 678 320 q 605 183 609 190 q 420 11 538 64 q 281 -19 351 -19 q 172 0 225 -19 q 16 136 68 41 q -19 247 -8 184 q -22 281 -22 270 q 24 345 -20 343 q 76 274 64 345 q 77 267 77 270 q 163 132 95 167 q 221 118 190 118 q 316 182 286 119 q 331 227 321 191 q 351 412 351 311 m 589 857 q 598 868 597 859 q 600 872 598 869 q 600 876 600 875 l 600 891 q 536 1036 600 990 q 510 1046 524 1046 q 490 1025 491 1046 q 488 1023 488 1023 q 518 983 492 1010 q 525 977 522 979 q 553 902 541 955 q 581 857 563 863 l 589 857 z "},"K":{"ha":960,"x_min":33,"x_max":967,"o":"m 967 130 q 902 30 967 57 q 850 20 878 22 q 822 22 831 22 q 635 134 735 37 q 610 160 627 144 q 430 349 511 258 q 425 355 429 351 q 419 361 420 359 q 389 134 401 218 q 283 -4 365 -3 q 197 45 232 -3 q 161 148 178 73 q 118 332 148 209 q 39 736 53 601 q 34 823 34 795 q 60 964 34 905 q 170 1078 92 1043 q 248 1096 209 1096 q 414 1008 349 1096 q 448 945 435 978 q 467 817 467 892 q 464 750 467 793 q 753 985 559 887 q 838 1010 803 1010 l 844 1010 q 909 977 887 1010 q 917 947 917 962 q 853 860 916 903 q 681 755 827 842 q 483 598 544 674 q 472 574 473 586 q 488 552 473 560 q 583 502 519 534 q 712 431 671 457 q 906 269 833 354 q 967 130 966 195 m 381 823 q 391 834 389 826 q 391 838 391 836 q 392 844 392 842 l 392 857 q 334 1000 392 954 q 330 1002 331 1002 q 301 1012 316 1012 q 281 989 282 1009 q 311 951 283 977 q 316 943 315 945 q 338 909 331 925 q 343 879 340 899 q 373 823 353 829 l 381 823 m 841 922 q 871 947 867 926 q 827 983 869 974 q 823 985 826 983 q 819 985 821 985 q 796 960 798 982 q 827 925 802 935 q 841 922 834 922 m 880 136 q 891 148 888 138 l 891 156 q 856 236 891 194 q 800 273 827 271 q 783 248 783 270 q 808 212 787 232 q 826 190 815 205 q 837 174 830 186 q 873 136 857 141 l 880 136 z "},"L":{"ha":854,"x_min":47,"x_max":905,"o":"m 739 317 q 878 256 830 317 q 905 178 903 221 q 831 56 903 107 q 703 0 789 27 q 446 -57 534 -52 q 407 -58 426 -58 q 172 26 255 -57 q 85 210 114 87 q 49 593 49 372 q 52 736 49 643 q 85 958 57 888 q 88 963 87 960 q 212 1086 130 1058 q 267 1096 239 1096 q 427 994 366 1096 q 450 948 441 971 q 475 791 475 883 q 471 696 475 784 q 396 157 448 355 q 395 144 395 152 q 401 134 396 136 q 415 138 411 136 q 477 189 435 155 q 648 301 583 277 q 675 309 662 307 q 739 317 707 317 m 384 823 q 393 834 392 826 q 393 838 393 836 q 395 844 395 842 l 395 857 q 336 1000 395 954 q 332 1002 334 1002 q 304 1012 319 1012 q 283 989 285 1009 q 313 951 286 977 q 320 943 317 945 q 340 909 335 925 q 346 879 343 899 q 377 823 357 829 l 384 823 m 815 153 q 826 164 823 155 l 826 172 q 787 241 826 220 q 770 247 779 245 q 742 235 746 250 l 742 225 q 791 164 747 201 q 795 161 793 161 q 808 155 803 156 q 812 154 810 155 q 815 153 814 153 z "},"M":{"ha":1196,"x_min":34,"x_max":1162,"o":"m 783 597 q 769 620 780 618 q 754 606 760 618 q 688 423 707 522 q 617 324 671 334 q 598 323 608 323 q 500 401 541 324 q 480 445 494 415 q 460 487 467 473 l 384 648 q 368 665 378 663 q 353 633 349 663 q 392 358 384 449 q 396 290 396 290 q 377 171 395 222 q 241 52 335 62 q 222 50 231 50 q 91 119 142 52 q 35 312 35 193 q 50 477 35 374 q 61 574 54 510 q 126 922 88 810 q 138 956 133 940 q 281 1086 190 1085 q 403 1010 351 1085 q 467 859 431 968 l 552 589 q 581 563 564 564 q 609 589 597 564 l 682 823 q 779 1000 722 949 q 789 1006 784 1004 q 899 1044 838 1044 q 1081 865 1029 1044 q 1088 845 1085 854 q 1161 332 1152 608 l 1161 301 q 1143 156 1161 209 q 1027 27 1108 53 q 982 20 1005 22 q 834 121 882 20 q 823 149 829 134 q 803 256 811 190 q 783 597 791 370 m 1005 876 q 967 956 1004 928 q 928 971 948 970 q 901 945 902 968 q 907 929 902 940 q 974 865 926 899 q 987 859 983 860 l 996 859 q 1005 868 1004 860 l 1005 876 m 372 933 q 334 1013 370 985 q 294 1028 315 1027 q 267 1002 269 1025 q 274 986 269 996 q 340 922 293 956 q 354 916 350 917 l 362 916 q 372 925 370 917 l 372 933 z "},"N":{"ha":916,"x_min":47,"x_max":864,"o":"m 346 336 q 334 304 334 334 q 338 235 334 281 q 343 164 343 187 q 334 81 343 118 q 240 -20 305 -4 q 213 -23 227 -23 q 100 46 149 -23 q 53 259 53 115 q 54 349 53 319 q 57 471 56 389 q 88 834 61 716 q 106 898 96 868 q 247 1039 153 1038 q 374 951 321 1039 q 378 945 377 948 q 437 757 411 888 q 522 363 471 574 q 547 330 530 336 q 571 339 562 324 q 572 346 572 343 q 572 365 572 350 q 538 609 570 403 q 521 795 521 720 l 521 802 q 608 1020 521 958 q 639 1036 623 1029 q 690 1046 663 1046 q 795 1000 754 1044 q 846 875 830 960 q 864 674 864 779 q 796 175 864 483 q 700 8 765 35 q 656 0 680 0 q 530 71 597 1 q 359 327 427 180 q 357 331 358 328 q 346 336 351 335 m 332 872 q 289 964 328 937 q 254 975 273 975 q 229 959 231 974 l 229 948 q 236 930 231 940 q 301 861 258 895 q 313 853 313 853 l 323 853 q 332 864 331 854 l 332 872 m 769 903 q 728 977 766 954 q 696 986 712 986 q 670 972 671 985 l 670 964 q 677 948 671 956 q 739 892 697 920 q 753 886 746 888 l 760 886 q 769 895 766 888 l 769 903 z "},"O":{"ha":818,"x_min":16,"x_max":780,"o":"m 387 642 q 374 499 387 629 q 370 444 370 467 q 396 335 372 374 q 464 285 418 294 q 479 283 472 283 q 595 395 555 285 q 636 621 636 500 q 621 769 636 693 q 467 945 582 944 q 369 910 419 945 q 297 845 334 883 q 384 681 370 798 q 387 642 387 661 m 311 689 q 273 769 309 741 q 233 784 254 783 q 206 758 208 781 q 213 742 208 751 q 279 678 232 712 q 293 671 289 673 l 300 671 q 311 681 309 673 l 311 689 m 572 1027 q 555 1016 556 1025 l 555 1009 q 559 998 555 1005 q 606 956 574 974 l 613 956 q 618 963 617 958 q 620 967 618 964 q 594 1017 620 997 q 572 1027 582 1025 m 220 869 q 373 1069 263 1015 q 481 1093 423 1093 q 663 1000 587 1092 q 774 697 754 890 q 779 617 779 656 q 709 313 779 450 q 502 96 635 157 q 415 71 460 77 q 369 68 399 68 q 157 148 248 69 q 24 389 53 239 q 16 486 16 438 q 39 667 18 574 q 175 863 80 833 q 203 868 190 867 q 212 869 206 868 q 220 869 217 869 z "},"P":{"ha":800,"x_min":14,"x_max":777,"o":"m 149 343 q 79 385 85 343 q 77 395 77 391 q 80 414 77 401 q 187 487 100 472 q 164 730 183 537 q 37 811 80 741 q 14 895 14 850 q 129 1074 14 1013 q 187 1097 157 1089 q 289 1109 239 1109 q 391 1101 340 1109 q 745 897 654 1062 q 754 876 750 886 q 777 758 777 822 q 757 642 777 699 q 513 400 697 481 q 389 361 454 374 q 385 361 388 361 q 382 359 384 359 q 380 304 382 340 q 378 248 378 267 q 361 149 376 183 q 285 91 328 96 q 205 153 229 91 q 203 156 203 155 q 191 229 191 191 q 191 247 191 235 q 193 266 193 260 l 193 343 l 149 343 m 682 856 q 643 936 681 906 q 604 949 624 949 q 576 925 578 947 q 583 909 578 918 q 650 845 602 879 q 663 837 662 837 l 671 837 q 682 848 680 838 l 682 856 m 388 728 q 391 600 391 684 q 389 495 391 530 q 506 578 483 511 q 513 614 513 595 q 418 722 513 692 q 388 728 403 726 z "},"Q":{"ha":836,"x_min":15,"x_max":837,"o":"m 385 642 q 373 499 385 629 q 369 444 369 467 q 395 335 370 374 q 463 285 416 294 q 477 283 471 283 q 525 297 510 285 q 477 358 507 317 q 437 461 438 425 q 480 538 437 518 q 510 544 494 544 q 605 483 562 544 q 617 465 606 480 q 635 620 635 538 q 620 769 635 693 q 465 945 581 944 q 368 910 418 945 q 296 845 332 883 q 382 681 369 798 q 385 642 385 661 m 309 689 q 271 769 308 741 q 232 784 252 783 q 205 758 206 781 q 212 742 206 751 q 278 678 231 712 q 292 671 288 673 l 298 671 q 309 681 308 673 l 309 689 m 571 1027 q 553 1016 555 1025 l 553 1009 q 557 998 553 1005 q 605 956 572 974 l 612 956 q 617 963 616 958 q 618 967 617 964 q 593 1017 618 997 q 571 1027 581 1025 m 518 503 q 499 494 500 502 l 499 487 q 505 476 499 484 q 553 433 524 449 l 557 433 q 564 439 562 435 l 564 445 q 538 495 564 476 q 518 503 528 502 m 836 100 q 802 45 836 58 q 783 41 792 41 q 708 87 742 41 q 692 109 692 107 q 624 187 675 129 q 368 68 503 69 q 156 148 247 69 q 23 389 52 239 q 15 486 15 438 q 38 667 15 574 q 174 863 79 833 q 201 868 189 867 q 210 869 205 868 q 218 869 216 869 q 372 1069 262 1015 q 480 1093 422 1093 q 662 1000 586 1092 q 773 697 753 890 q 777 617 777 656 q 712 321 777 454 q 806 175 745 273 q 836 100 836 127 z "},"R":{"ha":842,"x_min":19,"x_max":829,"o":"m 132 156 q 142 343 132 179 q 85 380 98 343 q 83 396 84 388 q 142 471 83 439 q 152 475 146 472 q 159 731 159 617 q 39 818 79 745 q 19 898 20 856 q 137 1076 19 1015 q 193 1097 164 1089 q 294 1109 244 1109 q 396 1101 346 1109 q 757 884 671 1058 q 760 876 758 879 q 784 758 783 822 q 762 642 784 699 q 608 448 718 521 q 568 425 587 435 q 650 391 635 397 q 787 283 738 345 q 827 178 827 233 q 770 81 827 111 q 715 69 745 69 q 623 99 666 71 q 521 212 578 127 q 423 324 464 296 q 412 332 418 328 q 370 357 370 357 q 354 354 365 357 q 338 351 343 353 q 317 179 324 258 q 252 28 308 50 q 220 22 236 23 q 145 76 171 22 q 141 85 144 81 q 132 156 132 113 m 689 856 q 650 936 688 907 q 612 949 632 949 q 583 925 585 948 q 590 909 585 920 q 656 845 610 879 q 671 837 666 840 l 678 837 q 689 848 686 840 l 689 856 m 739 222 q 700 302 736 274 q 661 316 681 316 q 633 292 635 315 q 640 275 635 285 q 707 212 661 245 q 720 205 716 206 l 728 205 q 739 214 736 206 l 739 222 m 381 731 q 358 491 377 623 q 503 557 464 495 q 518 614 518 583 q 433 719 518 686 q 381 731 407 727 z "},"S":{"ha":930,"x_min":1,"x_max":906,"o":"m 583 766 q 533 711 534 765 q 537 677 533 693 q 671 483 564 578 q 718 444 686 469 q 854 305 818 359 q 895 218 883 263 q 906 148 906 182 q 810 -62 906 27 q 802 -71 806 -68 q 533 -164 696 -163 q 517 -163 528 -164 q 502 -163 506 -163 q 152 -1 305 -149 q 79 81 111 38 q 1 288 1 190 q 12 361 1 328 q 117 477 42 450 q 170 487 142 487 q 296 408 247 487 q 320 365 305 393 q 365 292 349 312 q 426 264 389 264 q 473 293 463 264 q 476 309 476 302 q 465 346 476 321 q 358 468 439 397 q 290 532 309 511 q 191 783 193 640 q 296 1021 191 926 q 505 1101 384 1101 q 798 955 667 1101 q 810 941 804 948 q 882 783 882 860 q 818 663 882 701 q 811 659 814 661 q 770 650 791 650 q 658 718 724 650 q 648 727 651 724 q 583 766 610 766 m 770 803 q 783 815 780 804 l 783 823 q 736 920 777 887 q 726 928 731 925 q 705 932 716 932 q 677 903 678 929 q 684 884 678 895 q 750 811 704 849 q 770 803 765 803 m 815 199 q 776 292 814 260 q 736 307 757 307 q 709 279 711 304 q 716 259 712 270 q 784 187 736 227 q 804 178 798 178 q 815 190 812 179 l 815 199 m 248 292 q 259 304 258 293 l 259 312 q 214 408 255 376 q 203 416 208 414 q 183 420 194 420 q 155 392 155 418 q 161 373 156 384 q 228 300 182 338 q 248 292 243 292 z "},"T":{"ha":956,"x_min":-27,"x_max":987,"o":"m 536 586 q 572 643 570 591 q 570 670 572 654 q 548 747 560 732 q 526 760 537 757 q 502 746 509 765 q 500 738 500 741 q 499 727 499 738 l 500 716 q 500 686 500 707 q 517 597 503 620 q 536 586 526 587 m 91 859 q -23 898 -8 859 q -26 920 -26 909 q 56 996 -26 971 q 69 1000 62 998 q 545 1105 380 1089 q 655 1111 602 1111 q 834 1095 755 1111 q 986 964 985 1059 q 928 867 985 906 q 700 822 863 823 q 680 822 689 822 q 604 823 629 822 q 667 423 666 579 q 600 132 666 217 q 490 72 553 73 q 380 133 423 72 q 377 138 378 137 q 327 381 327 212 q 350 669 327 449 q 362 845 362 776 q 132 859 235 859 l 91 859 m 921 958 q 882 1038 920 1008 q 844 1051 864 1051 q 815 1027 817 1048 q 822 1009 818 1020 q 888 945 842 979 q 903 939 898 940 l 910 939 q 921 948 920 941 l 921 958 z "},"U":{"ha":903,"x_min":34,"x_max":856,"o":"m 841 661 q 842 627 841 650 q 844 590 844 602 q 833 499 844 560 q 777 292 806 351 q 488 47 685 91 q 411 39 450 39 q 66 307 155 39 q 45 393 53 349 q 34 536 34 452 q 69 844 34 755 q 156 948 99 917 q 222 966 190 966 q 370 864 321 966 q 396 742 396 807 q 370 557 396 690 q 357 431 357 483 q 463 203 359 267 q 517 189 488 189 q 597 218 559 190 q 703 548 703 308 q 700 654 703 583 q 699 761 699 726 q 742 940 699 906 q 768 954 754 949 q 779 956 777 956 q 849 865 842 956 q 850 845 850 854 q 849 836 850 841 q 849 825 849 827 q 852 798 849 815 q 856 769 856 779 q 844 694 856 762 q 841 661 841 675 m 206 876 l 206 864 l 208 859 l 213 848 l 232 823 l 255 802 l 281 784 l 289 777 l 293 776 l 301 776 q 311 787 309 780 l 311 789 l 312 792 l 312 795 l 304 831 l 283 864 l 254 884 l 241 887 l 231 888 q 206 876 212 883 m 746 873 q 769 837 746 844 q 777 836 774 836 q 804 857 798 836 q 806 865 806 863 q 781 899 806 890 q 772 901 776 901 q 746 873 749 897 z "},"V":{"ha":860,"x_min":28,"x_max":841,"o":"m 783 1078 q 837 1025 825 1078 q 841 1000 840 1013 q 831 941 840 979 q 793 718 818 868 q 700 275 747 418 q 650 151 677 208 q 586 58 621 88 q 477 23 544 24 q 340 62 406 24 q 146 300 227 132 q 30 755 38 526 l 30 770 q 140 1009 30 963 q 159 1016 149 1013 q 193 1020 178 1020 q 321 956 266 1020 q 327 949 324 952 q 396 774 376 890 q 426 505 406 722 q 484 217 445 321 q 505 201 494 202 q 525 225 517 203 q 635 637 589 368 q 707 994 678 897 q 783 1078 732 1076 m 292 758 q 304 783 304 761 q 281 857 301 817 q 232 920 258 898 q 197 936 208 936 q 172 913 174 930 q 205 872 176 895 q 210 868 208 869 q 251 800 237 842 q 285 758 266 764 l 292 758 m 764 1015 q 741 986 742 1012 q 762 963 746 968 q 791 991 789 964 q 769 1013 791 1009 q 764 1015 766 1015 z "},"W":{"ha":1336,"x_min":30,"x_max":1305,"o":"m 1135 966 q 1282 856 1237 966 q 1305 738 1303 802 q 1261 541 1305 659 q 1251 511 1253 518 q 1084 85 1141 208 q 1009 -22 1042 4 q 935 -47 977 -46 q 803 41 864 -46 q 734 267 749 122 q 728 345 731 293 q 713 486 722 439 q 712 491 713 491 q 707 496 711 494 l 704 496 q 697 488 703 495 q 651 399 682 458 q 587 274 608 315 q 498 110 526 148 q 369 12 441 34 q 313 4 339 4 q 136 195 176 7 q 92 510 119 274 q 62 709 79 633 q 31 901 31 852 q 60 1015 31 968 q 180 1088 107 1086 q 214 1084 197 1088 q 419 785 377 1046 q 439 463 431 703 q 441 445 439 452 q 454 422 442 425 q 468 435 461 423 q 538 557 528 543 q 639 646 585 624 q 688 655 666 655 q 793 570 757 655 q 810 526 799 555 q 846 393 838 435 q 849 384 846 388 q 856 377 850 378 q 873 395 868 370 q 875 399 875 397 q 926 636 880 431 q 937 686 933 665 q 981 849 963 808 q 990 867 986 859 q 1116 964 1039 954 q 1135 966 1126 966 m 300 909 q 262 989 298 959 q 222 1002 243 1002 q 194 978 197 1000 q 201 962 197 971 q 269 898 221 932 q 282 890 277 891 l 290 890 q 300 901 297 892 l 300 909 m 1219 798 q 1181 878 1218 849 q 1142 891 1162 891 q 1114 867 1115 890 q 1120 850 1116 860 q 1188 787 1141 821 q 1202 779 1196 781 l 1210 779 q 1219 789 1217 781 l 1219 798 z "},"X":{"ha":1032,"x_min":11,"x_max":1009,"o":"m 892 977 q 997 910 968 977 q 1008 854 1008 884 q 960 723 1008 796 q 955 716 959 720 q 947 704 949 708 q 694 406 836 541 q 911 81 841 203 q 916 73 913 79 q 951 -27 951 11 q 892 -115 951 -95 q 859 -121 876 -121 q 738 -61 800 -121 q 728 -52 734 -57 q 719 -43 722 -45 q 475 218 602 72 q 148 0 332 110 q 72 -30 95 -30 q 41 -23 54 -30 q 19 -3 27 -16 q 11 27 11 9 q 54 100 11 58 q 58 104 57 103 q 328 395 187 232 q 140 632 324 399 q 49 776 66 727 q 43 795 45 787 q 35 850 35 825 q 100 978 35 939 q 172 997 133 997 q 283 959 229 997 q 407 811 338 920 q 412 804 410 808 q 416 798 415 799 q 526 635 479 703 q 689 837 581 701 q 802 949 755 922 q 815 958 810 954 q 892 977 853 977 m 290 838 q 251 920 289 890 q 213 933 233 933 q 184 909 186 930 q 191 891 187 902 q 258 827 212 861 q 273 821 267 822 l 279 821 q 290 830 289 823 l 290 838 m 947 829 q 909 910 945 880 q 869 924 890 924 q 842 899 844 921 q 849 882 844 891 q 916 818 868 852 q 929 811 925 812 l 936 811 q 947 821 945 812 l 947 829 z "},"Y":{"ha":975,"x_min":4,"x_max":941,"o":"m 4 873 q 72 987 4 951 q 142 1004 106 1004 q 222 987 183 1004 q 370 857 289 958 q 380 846 374 852 q 505 674 449 758 q 594 928 540 811 q 770 1080 667 1078 q 899 1002 849 1080 q 916 974 909 987 q 940 849 940 918 q 933 766 940 810 q 685 109 895 477 q 540 -130 633 19 q 481 -180 510 -179 q 427 -85 429 -172 q 453 378 437 225 q 414 422 439 392 q 178 637 321 529 q 53 749 84 708 q 38 769 43 760 q 4 873 4 822 m 240 831 q 254 845 252 834 q 251 853 254 849 q 193 924 235 902 q 160 930 175 930 q 132 910 134 928 q 146 886 132 901 q 227 836 175 860 q 240 831 240 831 m 856 920 q 871 930 869 922 q 868 937 869 935 q 802 998 850 977 q 760 1006 780 1006 q 727 987 728 1005 q 743 967 728 978 q 837 924 776 944 q 856 920 854 920 z "},"Z":{"ha":926,"x_min":30,"x_max":911,"o":"m 221 681 q 47 760 92 681 q 31 829 31 791 q 80 945 31 894 q 311 1047 151 1020 q 473 1061 400 1061 q 745 1002 628 1061 q 864 845 863 943 q 784 681 864 762 q 761 658 776 673 q 743 640 749 646 q 499 389 636 538 q 476 353 477 366 q 509 328 479 328 q 637 357 544 328 q 728 373 693 373 q 883 288 827 373 q 888 277 886 281 q 911 190 910 232 q 872 96 910 133 q 760 47 833 61 q 481 16 617 16 q 288 35 380 16 q 87 161 119 71 q 79 213 80 186 q 146 339 81 274 q 522 700 308 506 q 534 719 534 713 q 510 741 533 739 q 490 738 500 741 q 419 718 467 731 q 221 681 294 681 m 774 827 q 785 838 783 830 q 785 844 785 841 q 787 848 785 846 q 732 930 783 903 q 709 939 720 936 q 684 935 688 943 q 680 917 680 929 q 713 873 684 901 q 719 868 718 869 q 754 836 742 845 q 766 829 765 830 q 770 829 768 829 q 774 827 774 827 m 817 212 q 826 222 825 213 q 827 227 826 224 q 827 231 827 229 q 773 313 825 286 q 751 323 762 320 q 726 317 730 326 q 720 300 720 312 q 755 258 724 283 q 761 251 760 254 q 796 220 784 229 q 808 213 806 213 q 812 212 810 213 q 817 212 815 212 z "},"[":{"ha":606,"x_min":37,"x_max":547,"o":"m 392 4 q 545 -110 538 -7 q 515 -190 545 -160 q 392 -225 480 -225 l 118 -198 q 57 -152 58 -197 q 102 -87 57 -110 q 113 -81 104 -85 q 126 -75 122 -77 q 114 -9 114 -50 q 117 35 114 8 q 123 251 123 156 q 84 848 123 503 q 39 882 47 848 q 38 894 38 888 q 72 947 39 926 q 71 975 71 958 q 132 1095 71 1073 q 161 1099 146 1099 q 247 1036 216 1099 q 254 1019 251 1027 q 393 1039 362 1039 q 544 951 530 1039 q 545 932 545 941 q 387 822 544 823 q 289 830 351 822 q 301 571 301 719 q 286 137 301 506 q 282 18 283 71 q 281 3 282 12 q 281 -14 281 -9 q 285 -12 282 -14 q 392 4 345 4 m 358 996 q 330 978 331 994 q 380 956 331 956 q 442 937 414 955 q 471 925 463 926 q 490 936 488 926 q 441 977 488 960 q 358 996 381 996 m 476 -141 q 491 -125 488 -137 q 442 -64 490 -87 q 359 -37 381 -37 q 331 -61 334 -41 q 369 -94 331 -92 q 381 -95 376 -95 q 442 -122 410 -95 q 476 -141 467 -141 z "},"\\":{"ha":581,"x_min":-31,"x_max":614,"o":"m -31 971 q 23 1076 -31 1044 q 72 1088 46 1088 q 164 1046 119 1086 q 240 918 202 1008 q 453 473 275 838 q 591 170 540 293 q 614 88 612 121 q 562 7 614 19 q 541 4 551 4 q 488 22 515 5 q 426 98 457 46 q 62 745 316 277 q 22 818 39 785 q -30 954 -26 903 q -31 971 -30 963 m 75 1032 q 53 1015 54 1029 q 75 998 54 1005 q 115 974 103 993 q 119 966 117 971 q 142 940 132 940 q 149 941 144 940 q 161 964 160 944 q 157 975 160 968 q 84 1031 136 1025 q 75 1032 79 1032 z "},"]":{"ha":608,"x_min":61,"x_max":570,"o":"m 217 869 q 64 959 83 869 q 61 986 61 972 q 216 1099 64 1097 l 488 1073 q 551 1027 548 1070 q 507 962 551 983 q 495 955 503 959 q 481 948 486 951 q 495 883 494 924 q 491 838 494 865 q 484 623 484 718 q 524 26 484 370 q 568 -9 560 26 q 570 -22 570 -16 q 534 -73 568 -53 q 536 -102 536 -84 q 471 -222 536 -205 q 448 -225 458 -225 q 359 -160 391 -225 q 353 -142 355 -151 q 343 -146 350 -144 q 335 -149 338 -148 q 214 -165 270 -165 q 65 -88 85 -165 q 61 -61 61 -75 q 222 52 64 50 q 320 43 256 52 q 307 311 307 159 q 321 750 307 372 q 326 856 324 808 q 326 872 326 861 q 327 887 327 883 q 324 886 324 887 q 217 869 264 869 m 505 1019 q 471 1050 505 1040 q 457 1051 463 1051 l 453 1051 q 426 1031 431 1051 q 425 1025 425 1027 q 454 990 425 996 q 463 989 458 989 q 505 1019 500 993 z "},"^":{"ha":754,"x_min":62,"x_max":692,"o":"m 98 540 q 62 594 64 543 q 106 751 64 655 q 233 989 159 871 q 366 1092 297 1090 q 481 1019 426 1090 q 589 838 518 971 q 620 783 606 804 q 637 751 625 772 q 692 604 689 659 l 692 597 q 640 506 692 532 q 597 496 620 496 q 486 560 543 496 q 392 731 425 632 q 357 873 388 742 q 350 901 353 888 q 335 924 343 922 q 328 922 331 924 q 308 903 315 914 q 213 726 241 785 q 187 671 203 707 q 142 581 159 610 q 98 540 122 543 m 454 937 q 463 945 461 940 l 463 952 q 418 1023 463 997 q 397 1031 407 1028 q 373 1024 380 1035 q 372 1020 373 1021 l 372 1010 q 374 1004 373 1008 q 377 999 376 1001 q 382 994 378 997 q 387 988 385 990 q 392 983 388 986 q 397 979 396 979 q 402 975 397 978 q 407 971 407 971 q 422 958 412 967 q 437 944 431 948 q 448 937 442 940 l 454 937 z "},"_":{"ha":613,"x_min":60,"x_max":555,"o":"m 392 -13 q 532 -44 490 -14 q 553 -84 552 -59 q 481 -146 552 -128 q 319 -162 411 -162 q 126 -153 300 -162 q 104 -152 113 -152 q 60 -131 67 -152 q 59 -126 59 -128 q 96 -89 60 -103 q 292 -25 231 -38 q 392 -13 349 -14 m 459 -59 q 441 -69 442 -60 q 452 -76 443 -75 q 481 -84 469 -79 q 488 -87 488 -87 l 493 -87 q 499 -81 497 -86 l 499 -76 q 464 -59 494 -65 q 459 -59 460 -59 z "},"`":{"ha":358,"x_min":23,"x_max":336,"o":"m 336 727 q 301 689 330 693 q 250 709 281 689 q 126 795 141 784 q 35 909 60 849 q 23 960 24 943 q 64 1028 23 1009 q 94 1035 79 1035 q 184 987 141 1034 q 282 834 224 947 q 316 769 304 792 q 336 727 335 738 m 180 871 q 190 882 189 873 q 191 886 190 883 q 191 890 191 890 q 137 974 189 947 q 115 982 126 979 q 90 978 94 985 q 84 960 84 971 q 117 918 88 943 q 125 911 122 914 q 160 879 148 888 q 172 872 170 873 q 176 872 174 872 q 180 871 179 871 z "},"a":{"ha":955,"x_min":-24,"x_max":989,"o":"m 66 206 q -15 252 9 206 q -24 293 -24 273 q -24 298 -24 294 q -23 307 -23 304 q 75 385 -11 368 q 148 395 91 388 q 187 568 163 452 q 245 811 222 731 q 378 1009 290 963 q 442 1025 410 1025 q 586 945 514 1025 q 591 939 589 941 q 755 598 686 826 q 776 529 764 571 q 793 465 781 507 q 818 377 811 407 q 986 282 970 361 q 989 258 989 270 q 936 178 989 197 q 902 172 921 172 q 860 176 880 172 q 869 73 869 100 q 814 -53 869 -18 q 762 -68 791 -68 q 609 56 667 -66 q 530 250 562 146 q 377 263 446 263 q 213 244 294 263 l 180 102 q 117 19 163 20 q 73 58 83 19 q 72 76 72 68 q 79 119 72 87 q 90 165 81 136 q 102 210 99 195 q 66 206 83 206 m 438 799 q 411 826 431 825 q 373 791 388 825 q 262 441 331 693 q 252 404 256 419 q 393 408 323 408 q 494 407 460 408 q 491 414 494 410 q 490 420 490 419 q 469 623 484 449 q 438 799 460 732 m 939 254 q 949 264 947 255 l 949 273 q 886 338 940 320 q 863 327 865 343 q 864 319 863 323 q 869 313 865 316 q 874 308 872 309 q 882 304 876 307 l 887 301 q 918 266 901 290 q 939 254 929 255 m 559 842 q 570 853 567 844 l 570 861 q 514 944 566 918 q 494 952 503 949 q 483 954 488 954 q 463 930 464 951 q 498 888 467 916 q 505 882 502 884 q 540 849 534 852 q 552 844 547 845 q 556 844 553 844 q 559 842 557 842 z "},"b":{"ha":792,"x_min":18,"x_max":789,"o":"m 315 19 q 151 79 206 19 q 119 156 119 113 q 146 222 121 191 l 146 293 q 140 441 145 345 l 134 441 q 72 473 76 444 q 126 526 72 506 q 132 528 130 526 q 110 704 117 654 q 104 705 107 705 q 99 707 100 707 q 24 777 42 728 q 18 808 18 793 q 34 860 19 836 q 267 949 88 949 q 529 901 407 949 q 661 795 623 860 q 684 715 684 753 q 586 547 684 625 q 583 544 585 545 q 765 416 712 513 q 789 331 788 373 q 688 160 788 237 q 519 71 633 119 q 315 19 391 20 m 632 734 q 643 743 640 735 l 643 750 q 617 803 642 772 q 572 848 595 826 q 521 878 541 878 q 498 859 499 876 q 532 826 500 844 q 537 822 536 823 q 589 769 571 800 q 625 735 609 739 q 628 734 627 735 q 632 734 631 734 m 743 358 q 754 366 751 359 l 754 373 q 728 426 753 395 q 655 494 684 476 q 628 500 639 500 q 609 481 610 498 q 640 452 612 468 q 648 448 646 449 q 680 423 671 433 q 697 399 686 415 q 722 365 712 374 q 736 358 731 359 l 743 358 m 342 453 q 338 368 340 425 q 334 283 335 312 q 479 334 435 293 q 503 387 502 358 q 441 454 503 431 q 419 461 433 457 q 407 465 411 464 q 343 453 397 463 l 342 453 m 336 697 q 345 541 345 620 q 452 620 449 560 q 406 678 452 654 q 401 681 403 680 q 336 697 377 692 z "},"c":{"ha":848,"x_min":11,"x_max":834,"o":"m 533 544 q 317 397 319 541 q 330 343 317 374 q 549 212 376 222 q 582 210 566 210 l 689 217 q 727 220 713 220 q 834 137 831 216 q 722 11 833 57 q 521 -30 625 -30 q 155 123 302 -30 q 16 400 42 241 q 11 476 11 435 q 151 818 11 674 q 326 933 228 897 q 480 962 407 962 q 722 878 621 962 q 764 833 746 856 q 811 699 811 765 q 785 613 810 647 q 593 544 734 544 l 533 544 m 735 700 q 746 711 743 701 l 746 719 q 719 784 745 745 q 675 838 704 804 q 621 875 644 873 q 600 852 601 872 q 636 811 604 834 q 640 808 639 810 q 692 743 673 783 q 728 700 711 705 l 735 700 m 736 114 q 731 91 736 106 l 731 81 q 742 75 732 75 q 764 119 761 79 q 705 174 762 161 q 674 167 681 180 q 673 163 673 164 l 673 157 q 696 144 675 146 q 736 114 732 140 z "},"d":{"ha":907,"x_min":20,"x_max":887,"o":"m 149 -53 q 72 9 73 -50 q 118 83 73 45 q 212 141 159 118 l 212 167 q 186 621 212 317 q 37 747 77 647 q 31 762 33 755 q 20 826 20 795 q 125 1015 20 947 q 170 1039 146 1029 q 225 1099 186 1086 q 243 1101 235 1101 q 307 1065 282 1100 q 426 1053 369 1065 q 781 860 655 1009 q 886 563 886 734 q 766 218 886 374 q 735 179 751 197 q 465 1 625 61 q 399 -20 420 -15 q 397 -24 397 -22 q 396 -30 396 -28 q 330 -92 376 -80 q 311 -95 320 -95 q 236 -49 266 -94 q 149 -53 193 -53 m 766 703 q 777 713 774 704 l 777 722 q 777 730 777 726 q 777 737 777 734 q 774 745 776 741 q 772 751 773 749 q 768 758 770 754 q 766 764 766 762 q 762 770 765 765 q 759 775 760 774 q 755 781 758 776 q 751 787 751 787 q 707 842 736 807 q 663 876 682 871 q 637 872 642 879 q 633 854 633 867 q 666 817 637 836 q 674 811 671 812 q 724 746 707 785 q 760 703 742 708 l 766 703 m 389 600 q 412 220 408 401 q 416 222 414 221 q 572 408 555 293 q 574 430 574 418 q 499 562 574 511 q 472 576 486 571 q 389 600 435 593 z "},"e":{"ha":781,"x_min":33,"x_max":761,"o":"m 122 844 q 33 892 34 845 q 103 956 33 935 q 107 958 106 958 q 109 958 109 958 l 111 959 l 111 974 q 176 1096 111 1078 q 199 1099 187 1099 q 293 1012 262 1097 q 515 1044 414 1044 q 718 981 669 1043 q 734 935 734 960 q 586 822 732 840 q 511 819 560 819 q 326 831 437 819 q 332 705 330 788 q 429 722 382 722 q 556 673 522 722 q 568 633 568 655 q 330 524 567 524 q 326 426 328 491 q 320 328 321 361 q 536 370 434 370 q 758 233 736 370 q 761 201 761 217 q 716 84 760 132 q 562 34 669 37 q 538 34 551 34 q 307 58 483 34 q 157 72 216 72 l 117 72 q 80 77 92 72 q 42 146 43 99 q 104 235 42 205 q 132 247 114 239 q 159 259 151 255 q 155 313 155 278 l 155 388 q 151 530 155 458 q 113 560 118 530 q 111 568 111 564 q 144 616 113 600 q 122 844 130 768 m 536 996 q 509 979 511 994 q 557 956 513 956 l 559 956 q 620 937 586 956 q 650 925 639 926 q 670 936 669 926 q 620 977 669 960 q 536 996 559 996 m 684 208 q 699 224 697 210 q 648 283 697 259 q 595 305 620 297 q 567 312 571 312 q 540 293 545 312 q 538 286 538 289 q 570 254 538 256 q 587 252 576 252 q 648 225 617 251 q 684 208 670 209 m 473 669 q 456 654 457 666 q 457 650 456 652 q 467 643 458 644 q 473 643 469 643 q 480 642 479 642 q 490 636 483 642 q 503 629 499 629 l 507 629 q 514 637 513 631 l 514 644 q 476 669 509 661 l 473 669 z "},"f":{"ha":860,"x_min":8,"x_max":873,"o":"m 136 572 q 125 671 125 656 q 199 785 125 770 q 225 788 213 788 q 351 666 323 788 q 357 640 355 652 q 502 655 431 655 q 643 636 579 655 q 728 559 727 609 q 633 471 728 495 q 623 468 627 469 q 407 446 529 446 l 380 446 l 380 411 q 365 137 380 374 q 365 126 365 130 q 270 1 357 3 q 179 71 199 1 q 172 115 172 92 q 174 146 172 125 q 174 178 174 168 q 153 456 174 302 q 119 457 142 456 q 84 458 95 458 q 22 487 30 458 q 20 495 20 492 q 69 547 20 528 q 73 548 72 548 q 104 560 84 552 q 136 572 126 568 m 604 1077 q 854 1000 800 1076 q 873 937 873 971 q 861 887 872 906 q 616 796 810 799 q 598 796 606 796 q 315 817 537 796 q 149 826 216 826 l 96 826 l 58 830 q 11 871 22 838 q 8 887 8 879 q 14 911 8 901 q 102 967 30 947 q 104 968 103 968 q 408 1054 328 1038 q 604 1077 517 1077 m 617 991 q 674 964 618 964 l 682 964 q 761 940 719 964 q 800 925 785 926 q 825 939 823 926 q 792 977 823 958 q 692 1008 765 990 q 654 1015 661 1015 q 621 1000 632 1013 l 617 991 m 591 591 q 567 578 568 589 q 581 567 568 568 q 591 566 583 567 q 601 564 598 564 q 614 559 605 564 q 633 552 628 552 l 639 552 q 648 560 646 553 l 648 567 q 598 590 643 583 q 591 591 594 591 z "},"g":{"ha":982,"x_min":20,"x_max":948,"o":"m 548 374 q 624 506 548 461 q 716 532 666 532 q 769 525 747 532 q 918 392 869 498 q 947 262 947 330 q 818 -9 947 103 q 548 -106 707 -104 q 293 -33 411 -104 q 56 283 122 76 q 20 507 22 391 q 167 920 20 751 q 370 1061 254 1019 q 530 1088 445 1088 q 814 1008 694 1088 q 878 949 853 981 q 920 837 918 894 q 838 697 918 754 q 643 628 779 654 q 494 590 537 606 q 391 529 430 566 q 317 359 319 460 q 354 235 319 293 q 499 126 403 153 q 567 117 533 117 q 697 165 670 117 q 704 193 704 179 q 662 241 704 227 q 647 245 656 243 q 633 250 637 248 q 553 339 571 274 q 548 374 549 357 m 810 788 q 822 800 821 789 l 822 810 q 793 884 822 848 q 743 947 776 909 q 693 987 713 978 q 682 990 684 990 q 659 967 662 990 q 658 963 658 964 q 699 917 663 941 q 704 913 703 914 q 738 879 723 898 q 758 841 746 868 q 787 796 774 808 q 802 788 793 789 l 810 788 m 795 408 q 783 411 785 411 q 755 396 757 410 q 773 378 755 384 q 784 373 780 376 q 810 343 791 370 q 836 326 823 326 q 856 345 854 327 q 852 359 854 353 q 795 408 831 392 z "},"h":{"ha":1036,"x_min":19,"x_max":983,"o":"m 19 438 q 64 498 19 479 q 84 505 75 503 q 45 736 54 648 q 39 819 39 792 q 66 964 39 903 q 176 1078 99 1043 q 255 1096 216 1096 q 423 1004 358 1096 q 453 945 442 975 q 473 818 473 888 q 464 696 473 788 q 442 495 449 553 q 533 484 472 491 q 625 475 595 477 q 647 780 632 640 q 696 966 662 905 q 807 1051 738 1036 q 833 1054 819 1054 q 967 955 928 1054 q 983 860 983 911 q 959 696 983 803 q 916 448 940 613 q 921 445 917 446 q 974 385 963 426 q 977 368 977 376 q 921 297 977 323 q 890 289 905 292 q 844 71 871 172 q 773 -49 817 -22 q 730 -62 750 -62 q 637 4 669 -61 q 620 122 620 45 l 620 176 q 621 305 620 263 q 423 340 548 316 q 396 134 415 270 q 290 -4 370 -1 q 205 45 241 -3 q 167 148 183 75 q 114 377 149 225 q 28 411 54 377 q 19 438 20 425 m 380 842 q 391 853 387 844 l 391 861 q 336 998 389 928 q 282 1035 307 1035 q 262 1010 262 1032 q 298 968 266 994 q 302 966 301 966 q 340 888 331 940 q 372 842 351 848 l 380 842 m 913 811 q 922 822 921 814 q 922 826 922 823 q 924 830 924 830 l 924 845 q 865 987 924 941 q 861 990 863 989 q 833 1000 848 1000 q 812 977 814 997 q 842 937 817 964 q 849 930 846 933 q 869 895 864 913 q 876 867 872 887 q 906 811 886 817 l 913 811 z "},"i":{"ha":460,"x_min":34,"x_max":411,"o":"m 365 373 q 330 157 347 220 q 252 95 308 96 q 151 197 179 95 q 144 225 148 209 q 104 393 132 282 q 65 562 77 506 q 34 800 34 711 q 149 1023 35 967 q 222 1039 184 1039 q 357 972 301 1038 q 411 810 411 910 q 403 696 411 768 q 365 373 389 586 m 345 812 l 345 830 q 312 939 343 891 q 270 964 290 963 q 248 952 250 963 l 248 945 q 273 913 250 933 q 281 906 278 909 q 305 838 293 892 q 308 825 307 830 q 330 803 313 811 l 336 803 q 345 812 343 804 z "},"j":{"ha":734,"x_min":-23,"x_max":678,"o":"m 351 412 q 331 681 351 471 q 321 842 321 777 q 347 990 321 930 q 449 1090 384 1066 q 491 1097 471 1097 q 636 994 585 1097 q 647 971 643 982 q 670 777 669 913 q 671 765 671 770 q 674 663 671 731 q 678 526 678 571 q 613 197 678 320 q 605 183 609 190 q 420 11 538 64 q 281 -19 351 -19 q 172 0 225 -19 q 16 136 68 41 q -19 247 -8 184 q -22 281 -22 270 q 24 345 -20 343 q 76 274 64 345 q 77 267 77 270 q 163 132 95 167 q 221 118 190 118 q 316 182 286 119 q 331 227 321 191 q 351 412 351 311 m 589 857 q 598 868 597 859 q 600 872 598 869 q 600 876 600 875 l 600 891 q 536 1036 600 990 q 510 1046 524 1046 q 490 1025 491 1046 q 488 1023 488 1023 q 518 983 492 1010 q 525 977 522 979 q 553 902 541 955 q 581 857 563 863 l 589 857 z "},"k":{"ha":960,"x_min":33,"x_max":967,"o":"m 967 130 q 902 30 967 57 q 850 20 878 22 q 822 22 831 22 q 635 134 735 37 q 610 160 627 144 q 430 349 511 258 q 425 355 429 351 q 419 361 420 359 q 389 134 401 218 q 283 -4 365 -3 q 197 45 232 -3 q 161 148 178 73 q 118 332 148 209 q 39 736 53 601 q 34 823 34 795 q 60 964 34 905 q 170 1078 92 1043 q 248 1096 209 1096 q 414 1008 349 1096 q 448 945 435 978 q 467 817 467 892 q 464 750 467 793 q 753 985 559 887 q 838 1010 803 1010 l 844 1010 q 909 977 887 1010 q 917 947 917 962 q 853 860 916 903 q 681 755 827 842 q 483 598 544 674 q 472 574 473 586 q 488 552 473 560 q 583 502 519 534 q 712 431 671 457 q 906 269 833 354 q 967 130 966 195 m 381 823 q 391 834 389 826 q 391 838 391 836 q 392 844 392 842 l 392 857 q 334 1000 392 954 q 330 1002 331 1002 q 301 1012 316 1012 q 281 989 282 1009 q 311 951 283 977 q 316 943 315 945 q 338 909 331 925 q 343 879 340 899 q 373 823 353 829 l 381 823 m 841 922 q 871 947 867 926 q 827 983 869 974 q 823 985 826 983 q 819 985 821 985 q 796 960 798 982 q 827 925 802 935 q 841 922 834 922 m 880 136 q 891 148 888 138 l 891 156 q 856 236 891 194 q 800 273 827 271 q 783 248 783 270 q 808 212 787 232 q 826 190 815 205 q 837 174 830 186 q 873 136 857 141 l 880 136 z "},"l":{"ha":854,"x_min":47,"x_max":905,"o":"m 739 317 q 878 256 830 317 q 905 178 903 221 q 831 56 903 107 q 703 0 789 27 q 446 -57 534 -52 q 407 -58 426 -58 q 172 26 255 -57 q 85 210 114 87 q 49 593 49 372 q 52 736 49 643 q 85 958 57 888 q 88 963 87 960 q 212 1086 130 1058 q 267 1096 239 1096 q 427 994 366 1096 q 450 948 441 971 q 475 791 475 883 q 471 696 475 784 q 396 157 448 355 q 395 144 395 152 q 401 134 396 136 q 415 138 411 136 q 477 189 435 155 q 648 301 583 277 q 675 309 662 307 q 739 317 707 317 m 384 823 q 393 834 392 826 q 393 838 393 836 q 395 844 395 842 l 395 857 q 336 1000 395 954 q 332 1002 334 1002 q 304 1012 319 1012 q 283 989 285 1009 q 313 951 286 977 q 320 943 317 945 q 340 909 335 925 q 346 879 343 899 q 377 823 357 829 l 384 823 m 815 153 q 826 164 823 155 l 826 172 q 787 241 826 220 q 770 247 779 245 q 742 235 746 250 l 742 225 q 791 164 747 201 q 795 161 793 161 q 808 155 803 156 q 812 154 810 155 q 815 153 814 153 z "},"m":{"ha":1196,"x_min":34,"x_max":1162,"o":"m 783 597 q 769 620 780 618 q 754 606 760 618 q 688 423 707 522 q 617 324 671 334 q 598 323 608 323 q 500 401 541 324 q 480 445 494 415 q 460 487 467 473 l 384 648 q 368 665 378 663 q 353 633 349 663 q 392 358 384 449 q 396 290 396 290 q 377 171 395 222 q 241 52 335 62 q 222 50 231 50 q 91 119 142 52 q 35 312 35 193 q 50 477 35 374 q 61 574 54 510 q 126 922 88 810 q 138 956 133 940 q 281 1086 190 1085 q 403 1010 351 1085 q 467 859 431 968 l 552 589 q 581 563 564 564 q 609 589 597 564 l 682 823 q 779 1000 722 949 q 789 1006 784 1004 q 899 1044 838 1044 q 1081 865 1029 1044 q 1088 845 1085 854 q 1161 332 1152 608 l 1161 301 q 1143 156 1161 209 q 1027 27 1108 53 q 982 20 1005 22 q 834 121 882 20 q 823 149 829 134 q 803 256 811 190 q 783 597 791 370 m 1005 876 q 967 956 1004 928 q 928 971 948 970 q 901 945 902 968 q 907 929 902 940 q 974 865 926 899 q 987 859 983 860 l 996 859 q 1005 868 1004 860 l 1005 876 m 372 933 q 334 1013 370 985 q 294 1028 315 1027 q 267 1002 269 1025 q 274 986 269 996 q 340 922 293 956 q 354 916 350 917 l 362 916 q 372 925 370 917 l 372 933 z "},"n":{"ha":916,"x_min":52,"x_max":864,"o":"m 346 336 q 334 304 334 334 q 338 235 334 281 q 343 164 343 187 q 334 81 343 118 q 240 -20 305 -4 q 213 -23 227 -23 q 100 46 149 -23 q 53 259 53 115 q 54 349 53 319 q 57 471 56 389 q 88 834 61 716 q 106 898 96 868 q 247 1039 153 1038 q 374 951 321 1039 q 378 945 377 948 q 437 757 411 888 q 522 363 471 574 q 547 330 530 336 q 571 339 562 324 q 572 346 572 343 q 572 365 572 350 q 538 609 570 403 q 521 795 521 720 l 521 802 q 608 1020 521 958 q 639 1036 623 1029 q 690 1046 663 1046 q 795 1000 754 1044 q 846 875 830 960 q 864 674 864 779 q 796 175 864 483 q 700 8 765 35 q 656 0 680 0 q 530 71 597 1 q 359 327 427 180 q 357 331 358 328 q 346 336 351 335 m 332 872 q 289 964 328 937 q 254 975 273 975 q 229 959 231 974 l 229 948 q 236 930 231 940 q 301 861 258 895 q 313 853 313 853 l 323 853 q 332 864 331 854 l 332 872 m 769 903 q 728 977 766 954 q 696 986 712 986 q 670 972 671 985 l 670 964 q 677 948 671 956 q 739 892 697 920 q 753 886 746 888 l 760 886 q 769 895 766 888 l 769 903 z "},"o":{"ha":818,"x_min":16,"x_max":780,"o":"m 387 642 q 374 499 387 629 q 370 444 370 467 q 396 335 372 374 q 464 285 418 294 q 479 283 472 283 q 595 395 555 285 q 636 621 636 500 q 621 769 636 693 q 467 945 582 944 q 369 910 419 945 q 297 845 334 883 q 384 681 370 798 q 387 642 387 661 m 311 689 q 273 769 309 741 q 233 784 254 783 q 206 758 208 781 q 213 742 208 751 q 279 678 232 712 q 293 671 289 673 l 300 671 q 311 681 309 673 l 311 689 m 572 1027 q 555 1016 556 1025 l 555 1009 q 559 998 555 1005 q 606 956 574 974 l 613 956 q 618 963 617 958 q 620 967 618 964 q 594 1017 620 997 q 572 1027 582 1025 m 220 869 q 373 1069 263 1015 q 481 1093 423 1093 q 663 1000 587 1092 q 774 697 754 890 q 779 617 779 656 q 709 313 779 450 q 502 96 635 157 q 415 71 460 77 q 369 68 399 68 q 157 148 248 69 q 24 389 53 239 q 16 486 16 438 q 39 667 18 574 q 175 863 80 833 q 203 868 190 867 q 212 869 206 868 q 220 869 217 869 z "},"p":{"ha":800,"x_min":14,"x_max":777,"o":"m 149 343 q 79 385 85 343 q 77 395 77 391 q 80 414 77 401 q 187 487 100 472 q 164 730 183 537 q 37 811 80 741 q 14 895 14 850 q 129 1074 14 1013 q 187 1097 157 1089 q 289 1109 239 1109 q 391 1101 340 1109 q 745 897 654 1062 q 754 876 750 886 q 777 758 777 822 q 757 642 777 699 q 513 400 697 481 q 389 361 454 374 q 385 361 388 361 q 382 359 384 359 q 380 304 382 340 q 378 248 378 267 q 361 149 376 183 q 285 91 328 96 q 205 153 229 91 q 203 156 203 155 q 191 229 191 191 q 191 247 191 235 q 193 266 193 260 l 193 343 l 149 343 m 682 856 q 643 936 681 906 q 604 949 624 949 q 576 925 578 947 q 583 909 578 918 q 650 845 602 879 q 663 837 662 837 l 671 837 q 682 848 680 838 l 682 856 m 388 728 q 391 600 391 684 q 389 495 391 530 q 506 578 483 511 q 513 614 513 595 q 418 722 513 692 q 388 728 403 726 z "},"q":{"ha":836,"x_min":15,"x_max":837,"o":"m 385 642 q 373 499 385 629 q 369 444 369 467 q 395 335 370 374 q 463 285 416 294 q 477 283 471 283 q 525 297 510 285 q 477 358 507 317 q 437 461 438 425 q 480 538 437 518 q 510 544 494 544 q 605 483 562 544 q 617 465 606 480 q 635 620 635 538 q 620 769 635 693 q 465 945 581 944 q 368 910 418 945 q 296 845 332 883 q 382 681 369 798 q 385 642 385 661 m 309 689 q 271 769 308 741 q 232 784 252 783 q 205 758 206 781 q 212 742 206 751 q 278 678 231 712 q 292 671 288 673 l 298 671 q 309 681 308 673 l 309 689 m 571 1027 q 553 1016 555 1025 l 553 1009 q 557 998 553 1005 q 605 956 572 974 l 612 956 q 617 963 616 958 q 618 967 617 964 q 593 1017 618 997 q 571 1027 581 1025 m 518 503 q 499 494 500 502 l 499 487 q 505 476 499 484 q 553 433 524 449 l 557 433 q 564 439 562 435 l 564 445 q 538 495 564 476 q 518 503 528 502 m 836 100 q 802 45 836 58 q 783 41 792 41 q 708 87 742 41 q 692 109 692 107 q 624 187 675 129 q 368 68 503 69 q 156 148 247 69 q 23 389 52 239 q 15 486 15 438 q 38 667 15 574 q 174 863 79 833 q 201 868 189 867 q 210 869 205 868 q 218 869 216 869 q 372 1069 262 1015 q 480 1093 422 1093 q 662 1000 586 1092 q 773 697 753 890 q 777 617 777 656 q 712 321 777 454 q 806 175 745 273 q 836 100 836 127 z "},"r":{"ha":842,"x_min":19,"x_max":829,"o":"m 132 156 q 142 343 132 179 q 85 380 98 343 q 83 396 84 388 q 142 471 83 439 q 152 475 146 472 q 159 731 159 617 q 39 818 79 745 q 19 898 20 856 q 137 1076 19 1015 q 193 1097 164 1089 q 294 1109 244 1109 q 396 1101 346 1109 q 757 884 671 1058 q 760 876 758 879 q 784 758 783 822 q 762 642 784 699 q 608 448 718 521 q 568 425 587 435 q 650 391 635 397 q 787 283 738 345 q 827 178 827 233 q 770 81 827 111 q 715 69 745 69 q 623 99 666 71 q 521 212 578 127 q 423 324 464 296 q 412 332 418 328 q 370 357 370 357 q 354 354 365 357 q 338 351 343 353 q 317 179 324 258 q 252 28 308 50 q 220 22 236 23 q 145 76 171 22 q 141 85 144 81 q 132 156 132 113 m 689 856 q 650 936 688 907 q 612 949 632 949 q 583 925 585 948 q 590 909 585 920 q 656 845 610 879 q 671 837 666 840 l 678 837 q 689 848 686 840 l 689 856 m 739 222 q 700 302 736 274 q 661 316 681 316 q 633 292 635 315 q 640 275 635 285 q 707 212 661 245 q 720 205 716 206 l 728 205 q 739 214 736 206 l 739 222 m 381 731 q 358 491 377 623 q 503 557 464 495 q 518 614 518 583 q 433 719 518 686 q 381 731 407 727 z "},"s":{"ha":930,"x_min":1,"x_max":906,"o":"m 583 766 q 533 711 534 765 q 537 677 533 693 q 671 483 564 578 q 718 444 686 469 q 854 305 818 359 q 895 218 883 263 q 906 148 906 182 q 810 -62 906 27 q 802 -71 806 -68 q 533 -164 696 -163 q 517 -163 528 -164 q 502 -163 506 -163 q 152 -1 305 -149 q 79 81 111 38 q 1 288 1 190 q 12 361 1 328 q 117 477 42 450 q 170 487 142 487 q 296 408 247 487 q 320 365 305 393 q 365 292 349 312 q 426 264 389 264 q 473 293 463 264 q 476 309 476 302 q 465 346 476 321 q 358 468 439 397 q 290 532 309 511 q 191 783 193 640 q 296 1021 191 926 q 505 1101 384 1101 q 798 955 667 1101 q 810 941 804 948 q 882 783 882 860 q 818 663 882 701 q 811 659 814 661 q 770 650 791 650 q 658 718 724 650 q 648 727 651 724 q 583 766 610 766 m 770 803 q 783 815 780 804 l 783 823 q 736 920 777 887 q 726 928 731 925 q 705 932 716 932 q 677 903 678 929 q 684 884 678 895 q 750 811 704 849 q 770 803 765 803 m 815 199 q 776 292 814 260 q 736 307 757 307 q 709 279 711 304 q 716 259 712 270 q 784 187 736 227 q 804 178 798 178 q 815 190 812 179 l 815 199 m 248 292 q 259 304 258 293 l 259 312 q 214 408 255 376 q 203 416 208 414 q 183 420 194 420 q 155 392 155 418 q 161 373 156 384 q 228 300 182 338 q 248 292 243 292 z "},"t":{"ha":956,"x_min":-27,"x_max":987,"o":"m 536 586 q 572 643 570 591 q 570 670 572 654 q 548 747 560 732 q 526 760 537 757 q 502 746 509 765 q 500 738 500 741 q 499 727 499 738 l 500 716 q 500 686 500 707 q 517 597 503 620 q 536 586 526 587 m 91 859 q -23 898 -8 859 q -26 920 -26 909 q 56 996 -26 971 q 69 1000 62 998 q 545 1105 380 1089 q 655 1111 602 1111 q 834 1095 755 1111 q 986 964 985 1059 q 928 867 985 906 q 700 822 863 823 q 680 822 689 822 q 604 823 629 822 q 667 423 666 579 q 600 132 666 217 q 490 72 553 73 q 380 133 423 72 q 377 138 378 137 q 327 381 327 212 q 350 669 327 449 q 362 845 362 776 q 132 859 235 859 l 91 859 m 921 958 q 882 1038 920 1008 q 844 1051 864 1051 q 815 1027 817 1048 q 822 1009 818 1020 q 888 945 842 979 q 903 939 898 940 l 910 939 q 921 948 920 941 l 921 958 z "},"u":{"ha":903,"x_min":34,"x_max":856,"o":"m 841 661 q 842 627 841 650 q 844 590 844 602 q 833 499 844 560 q 777 292 806 351 q 488 47 685 91 q 411 39 450 39 q 66 307 155 39 q 45 393 53 349 q 34 536 34 452 q 69 844 34 755 q 156 948 99 917 q 222 966 190 966 q 370 864 321 966 q 396 742 396 807 q 370 557 396 690 q 357 431 357 483 q 463 203 359 267 q 517 189 488 189 q 597 218 559 190 q 703 548 703 308 q 700 654 703 583 q 699 761 699 726 q 742 940 699 906 q 768 954 754 949 q 779 956 777 956 q 849 865 842 956 q 850 845 850 854 q 849 836 850 841 q 849 825 849 827 q 852 798 849 815 q 856 769 856 779 q 844 694 856 762 q 841 661 841 675 m 206 876 l 206 864 l 208 859 l 213 848 l 232 823 l 255 802 l 281 784 l 289 777 l 293 776 l 301 776 q 311 787 309 780 l 311 789 l 312 792 l 312 795 l 304 831 l 283 864 l 254 884 l 241 887 l 231 888 q 206 876 212 883 m 746 873 q 769 837 746 844 q 777 836 774 836 q 804 857 798 836 q 806 865 806 863 q 781 899 806 890 q 772 901 776 901 q 746 873 749 897 z "},"v":{"ha":860,"x_min":28,"x_max":841,"o":"m 783 1078 q 837 1025 825 1078 q 841 1000 840 1013 q 831 941 840 979 q 793 718 818 868 q 700 275 747 418 q 650 151 677 208 q 586 58 621 88 q 477 23 544 24 q 340 62 406 24 q 146 300 227 132 q 30 755 38 526 l 30 770 q 140 1009 30 963 q 159 1016 149 1013 q 193 1020 178 1020 q 321 956 266 1020 q 327 949 324 952 q 396 774 376 890 q 426 505 406 722 q 484 217 445 321 q 505 201 494 202 q 525 225 517 203 q 635 637 589 368 q 707 994 678 897 q 783 1078 732 1076 m 292 758 q 304 783 304 761 q 281 857 301 817 q 232 920 258 898 q 197 936 208 936 q 172 913 174 930 q 205 872 176 895 q 210 868 208 869 q 251 800 237 842 q 285 758 266 764 l 292 758 m 764 1015 q 741 986 742 1012 q 762 963 746 968 q 791 991 789 964 q 769 1013 791 1009 q 764 1015 766 1015 z "},"w":{"ha":1336,"x_min":30,"x_max":1305,"o":"m 1135 966 q 1282 856 1237 966 q 1305 738 1303 802 q 1261 541 1305 659 q 1251 511 1253 518 q 1084 85 1141 208 q 1009 -22 1042 4 q 935 -47 977 -46 q 803 41 864 -46 q 734 267 749 122 q 728 345 731 293 q 713 486 722 439 q 712 491 713 491 q 707 496 711 494 l 704 496 q 697 488 703 495 q 651 399 682 458 q 587 274 608 315 q 498 110 526 148 q 369 12 441 34 q 313 4 339 4 q 136 195 176 7 q 92 510 119 274 q 62 709 79 633 q 31 901 31 852 q 60 1015 31 968 q 180 1088 107 1086 q 214 1084 197 1088 q 419 785 377 1046 q 439 463 431 703 q 441 445 439 452 q 454 422 442 425 q 468 435 461 423 q 538 557 528 543 q 639 646 585 624 q 688 655 666 655 q 793 570 757 655 q 810 526 799 555 q 846 393 838 435 q 849 384 846 388 q 856 377 850 378 q 873 395 868 370 q 875 399 875 397 q 926 636 880 431 q 937 686 933 665 q 981 849 963 808 q 990 867 986 859 q 1116 964 1039 954 q 1135 966 1126 966 m 300 909 q 262 989 298 959 q 222 1002 243 1002 q 194 978 197 1000 q 201 962 197 971 q 269 898 221 932 q 282 890 277 891 l 290 890 q 300 901 297 892 l 300 909 m 1219 798 q 1181 878 1218 849 q 1142 891 1162 891 q 1114 867 1115 890 q 1120 850 1116 860 q 1188 787 1141 821 q 1202 779 1196 781 l 1210 779 q 1219 789 1217 781 l 1219 798 z "},"x":{"ha":1032,"x_min":11,"x_max":1009,"o":"m 892 977 q 997 910 968 977 q 1008 854 1008 884 q 960 723 1008 796 q 955 716 959 720 q 947 704 949 708 q 694 406 836 541 q 911 81 841 203 q 916 73 913 79 q 951 -27 951 11 q 892 -115 951 -95 q 859 -121 876 -121 q 738 -61 800 -121 q 728 -52 734 -57 q 719 -43 722 -45 q 475 218 602 72 q 148 0 332 110 q 72 -30 95 -30 q 41 -23 54 -30 q 19 -3 27 -16 q 11 27 11 9 q 54 100 11 58 q 58 104 57 103 q 328 395 187 232 q 140 632 324 399 q 49 776 66 727 q 43 795 45 787 q 35 850 35 825 q 100 978 35 939 q 172 997 133 997 q 283 959 229 997 q 407 811 338 920 q 412 804 410 808 q 416 798 415 799 q 526 635 479 703 q 689 837 581 701 q 802 949 755 922 q 815 958 810 954 q 892 977 853 977 m 290 838 q 251 920 289 890 q 213 933 233 933 q 184 909 186 930 q 191 891 187 902 q 258 827 212 861 q 273 821 267 822 l 279 821 q 290 830 289 823 l 290 838 m 947 829 q 909 910 945 880 q 869 924 890 924 q 842 899 844 921 q 849 882 844 891 q 916 818 868 852 q 929 811 925 812 l 936 811 q 947 821 945 812 l 947 829 z "},"y":{"ha":975,"x_min":4,"x_max":941,"o":"m 4 873 q 72 987 4 951 q 142 1004 106 1004 q 222 987 183 1004 q 370 857 289 958 q 380 846 374 852 q 505 674 449 758 q 594 928 540 811 q 770 1080 667 1078 q 899 1002 849 1080 q 916 974 909 987 q 940 849 940 918 q 933 766 940 810 q 685 109 895 477 q 540 -130 633 19 q 481 -180 510 -179 q 427 -85 429 -172 q 453 378 437 225 q 414 422 439 392 q 178 637 321 529 q 53 749 84 708 q 38 769 43 760 q 4 873 4 822 m 240 831 q 254 845 252 834 q 251 853 254 849 q 193 924 235 902 q 160 930 175 930 q 132 910 134 928 q 146 886 132 901 q 227 836 175 860 q 240 831 240 831 m 856 920 q 871 930 869 922 q 868 937 869 935 q 802 998 850 977 q 760 1006 780 1006 q 727 987 728 1005 q 743 967 728 978 q 837 924 776 944 q 856 920 854 920 z "},"z":{"ha":926,"x_min":30,"x_max":911,"o":"m 221 681 q 47 760 92 681 q 31 829 31 791 q 80 945 31 894 q 311 1047 151 1020 q 473 1061 400 1061 q 745 1002 628 1061 q 864 845 863 943 q 784 681 864 762 q 761 658 776 673 q 743 640 749 646 q 499 389 636 538 q 476 353 477 366 q 509 328 479 328 q 637 357 544 328 q 728 373 693 373 q 883 288 827 373 q 888 277 886 281 q 911 190 910 232 q 872 96 910 133 q 760 47 833 61 q 481 16 617 16 q 288 35 380 16 q 87 161 119 71 q 79 213 80 186 q 146 339 81 274 q 522 700 308 506 q 534 719 534 713 q 510 741 533 739 q 490 738 500 741 q 419 718 467 731 q 221 681 294 681 m 774 827 q 785 838 783 830 q 785 844 785 841 q 787 848 785 846 q 732 930 783 903 q 709 939 720 936 q 684 935 688 943 q 680 917 680 929 q 713 873 684 901 q 719 868 718 869 q 754 836 742 845 q 766 829 765 830 q 770 829 768 829 q 774 827 774 827 m 817 212 q 826 222 825 213 q 827 227 826 224 q 827 231 827 229 q 773 313 825 286 q 751 323 762 320 q 726 317 730 326 q 720 300 720 312 q 755 258 724 283 q 761 251 760 254 q 796 220 784 229 q 808 213 806 213 q 812 212 810 213 q 817 212 815 212 z "},"{":{"ha":382,"x_min":45,"x_max":335,"o":"m 332 -186 q 289 -239 332 -225 q 266 -241 277 -241 q 232 -239 255 -241 q 66 -127 106 -221 q 53 -54 53 -94 q 80 50 53 -3 q 110 96 90 66 q 161 205 155 161 q 163 218 163 210 q 110 304 163 274 q 103 307 106 305 q 46 355 47 330 q 96 408 46 388 q 106 411 100 410 q 165 499 164 439 q 146 570 164 529 q 117 617 137 586 q 57 753 62 699 q 56 772 56 764 q 176 943 56 898 q 235 958 203 952 q 275 960 267 960 q 334 910 328 954 q 335 901 335 905 q 296 865 335 872 q 255 857 260 859 q 233 819 235 848 q 239 795 233 811 q 271 716 248 768 q 327 537 320 605 q 327 528 327 534 q 328 517 328 519 q 248 358 327 419 q 326 203 324 296 q 324 193 326 199 q 324 182 324 184 q 266 -1 317 114 q 236 -76 245 -50 q 229 -106 229 -98 q 269 -140 229 -132 q 324 -160 315 -149 q 332 -186 331 -171 m 187 304 q 220 256 189 283 q 227 250 221 255 q 258 231 247 232 q 275 243 273 232 q 274 247 275 244 q 274 251 274 251 q 228 317 267 302 q 208 321 217 320 q 187 304 190 319 m 263 887 q 288 911 286 890 q 255 937 279 932 l 250 937 q 232 918 236 933 q 256 888 232 892 q 263 887 260 887 z "},"|":{"ha":362,"x_min":65,"x_max":298,"o":"m 262 -136 q 224 -240 247 -218 q 203 -252 214 -248 q 193 -254 199 -254 q 142 -214 165 -252 q 118 -123 129 -186 q 65 488 65 183 q 83 841 65 673 q 140 1015 98 971 q 184 1035 161 1034 q 260 966 235 1035 q 264 958 263 960 q 286 818 281 909 q 297 433 297 613 q 262 -136 297 119 m 248 886 q 252 891 252 888 q 254 895 254 894 q 216 987 252 967 q 206 987 210 989 q 199 981 203 986 l 199 975 q 218 949 202 968 q 231 911 224 941 q 244 886 233 891 l 248 886 z "},"}":{"ha":382,"x_min":47,"x_max":338,"o":"m 118 960 q 152 958 129 959 q 320 838 283 939 q 331 772 331 807 q 302 670 330 722 q 274 623 294 654 q 222 514 229 557 q 221 500 221 507 q 274 415 221 444 q 281 411 278 412 q 338 362 336 388 q 286 311 338 331 q 278 307 283 309 q 218 220 220 278 q 237 149 218 190 q 265 104 247 132 q 296 58 283 77 q 318 7 308 38 q 328 -54 328 -23 q 214 -221 328 -175 q 149 -239 183 -233 q 109 -241 117 -243 q 49 -182 56 -225 q 85 -146 49 -155 q 138 -130 130 -137 q 151 -102 149 -119 q 144 -76 149 -92 q 113 1 136 -50 q 57 182 64 114 q 56 193 57 186 q 56 203 56 199 q 134 359 57 298 q 58 517 60 422 q 60 528 58 519 q 60 537 60 534 q 118 722 66 605 q 148 795 138 769 q 153 819 152 811 q 130 857 151 848 q 107 861 126 859 q 54 887 62 868 q 52 905 52 895 q 94 956 52 943 q 118 960 106 959 m 190 860 q 222 812 191 840 q 229 806 224 811 q 262 787 250 787 q 278 799 275 788 q 277 803 278 800 q 277 807 277 806 q 231 872 270 859 q 210 876 220 876 q 190 860 193 875 m 174 107 q 176 90 174 94 q 209 35 193 54 q 227 22 218 23 q 241 39 240 24 q 243 56 243 46 q 209 121 243 103 q 189 126 199 126 q 174 107 175 125 z "},"~":{"ha":911,"x_min":68,"x_max":722,"o":"m 68 336 q 72 374 68 357 q 184 530 96 494 q 254 544 217 544 q 370 510 316 544 q 418 475 388 499 q 465 441 449 450 q 537 416 507 416 q 627 471 598 418 q 633 486 629 476 q 669 522 648 519 q 678 524 674 524 q 720 460 718 518 l 720 450 q 623 282 708 332 q 522 255 578 256 q 486 258 511 255 q 316 323 423 267 q 235 361 263 350 q 205 368 220 368 q 167 331 176 368 q 145 281 155 289 q 121 274 134 274 q 69 319 79 274 q 68 336 68 328 m 357 426 q 357 435 359 430 q 262 487 328 487 q 222 464 224 486 q 270 431 222 439 q 286 427 282 429 q 331 416 320 419 q 347 416 339 415 q 357 426 354 419 m 692 467 q 670 490 690 488 q 650 468 651 487 q 670 448 652 449 q 692 467 688 452 z "}}}
